<?xml version="1.0" encoding="utf-8"?>
<!-- Generator: Adobe Illustrator 21.1.0, SVG Export Plug-In . SVG Version: 6.00 Build 0)  -->
<svg version="1.1" xmlns="http://www.w3.org/2000/svg" xmlns:xlink="http://www.w3.org/1999/xlink" x="0px" y="0px"
	 viewBox="0 0 278 268" style="enable-background:new 0 0 278 268;" xml:space="preserve">
<style type="text/css">
	.st0{fill:#415381;}
	.st1{display:none;fill:#415381;}
	.st2{fill:#919FD1;stroke:#FFFFFF;stroke-width:1.5;stroke-miterlimit:10;}
	.st3{fill:#259490;}
	.st4{fill:#FEFEFE;}
	.st5{display:none;fill:#373435;}
	.st6{fill:none;}
	.st7{fill:#FFFFFF;}
	.st8{fill:#919FD1;}
</style>
<g id="Blue_circle">
	<circle class="st0" cx="138.8" cy="98.6" r="94.7"/>
	<path class="st1" d="M183.4,12C171,5.8,149,2.3,135.7,3.2C121.1,4.1,98.8,11.6,86,19.4c-6.5,4-29.3,28.9-33.9,40.1
		c-4.8,11.5-10.2,31.2-8.2,44.6c2.1,14,6.7,32.4,15.3,43.8c8.9,11.9,19.9,23.6,30.9,29.8c11.4,6.5,36,16.1,47.5,16.1
		c11.8,0,36.2-6.3,43.1-9.6c7.3-3.6,25.8-14,30.9-19.7c5-5.7,16.7-33.5,19.4-47.2c2.7-13.5,2-25.3,0-36.4c-2-11.2-7-27.1-12.7-35.4
		C212.4,36.9,195.9,18.3,183.4,12L183.4,12z"/>
</g>
<g id="Globe_background">
	<circle class="st2" cx="139" cy="98.6" r="48.2"/>
</g>
<g id="Globe">
	<path class="st3" d="M166.2,131.9l2.9,3.3c0,0,0.1,0,0,0c4.8-4,8.9-8.9,12-14.8l-2.6-1.9l-2.2,2.7l-3.4,0.2l-0.2-2.2l-2.3,0.3
		l-1.8,3l-6.2,1.5l-0.2,1.2l-2.7,5.4l1.9,2.1l4.7-0.9L166.2,131.9z"/>
	<polygon class="st3" points="108,80.3 101.6,74.9 102.6,84.3 	"/>
	<g>
		<polygon class="st3" points="98.4,93.7 98.8,98.2 103.3,97.6 108.7,93.2 117.2,95.9 118.9,101.2 113.8,102.5 105.4,103.3 
			101.4,110.2 104.3,120.5 109.7,122.4 114,122.9 116.6,129.4 120.3,130 121.4,134.1 124.1,134.9 125.7,139.3 127.4,139.8 
			126.1,129 133.3,112.3 129.4,111.7 126.2,102 130.7,102 133.9,106.3 137.7,102.8 142.1,103.2 145.2,107.8 147,104.6 150.8,104.3 
			152.6,105.6 156.8,109.4 158.6,108.4 157.1,105.5 156.8,103 159,99.9 161.8,99 162.9,97.7 163.4,90.9 166.8,88.8 167.5,83.7 
			170.5,82.4 174.4,88.5 175.1,88.1 175.5,82.7 178.9,80 177.9,77.3 174.5,76.8 173.2,73.5 170.4,74.2 168.3,71.8 167,72.2 
			163.7,74 160.4,69.6 154.9,71.4 153.5,67.8 155.7,61.1 154.3,59.8 150.4,61.6 145.1,64.8 144.9,67.2 139.3,66.5 134.7,66.8 
			128.1,73.2 123.3,74 121.3,69.6 122.9,67.5 121.4,65.9 116.5,67.8 110.5,72.2 110.5,76.9 112,76.8 113.3,73.8 115.7,75.8 
			112.8,86.3 106.3,85.3 102.9,88.3 103.3,91.8 		"/>
		<path class="st4" d="M126.9,145.5c3.5,1.6,18,2,23.7-0.3l-2.7-2.8l-3.3,1.3l-3-1.9l-4.8,2.3l-3.4-1.9L126.9,145.5L126.9,145.5z
			 M149.6,51.8c-6.5-2-16.5-2.2-25.2,0.6l6.7,4.4l4.4-1.3l2.9,2.4l4.5-2.6l4.4,0.5L149.6,51.8z"/>
	</g>
</g>
<g id="Layer_1">
	<g id="Layer_x0020_1">
		<path class="st5" d="M155.3,10.4l-0.7-0.4c-1.2-0.5-2.3-1.2-3.6-0.9c-0.4,0.1-4.2,1.6-8.1,3.2c-3.9,1.5-7.6,3-7.6,3l-0.5-1.2
			c0,0,3.7-1.5,7.6-3c3.8-1.5,7.8-3.1,8.3-3.2c1.7-0.4,3,0.2,4.5,0.9c0.6,0.4,2.5,0.9,1.7,2c-0.3,0.4-0.9,0.7-1.7,1
			c-1.7,0.6-12.7,6.3-12.7,6.3l-0.6-1.2c0,0,2.8-1.4,5.8-3c3-1.5,6.3-3.1,7.1-3.5C154.9,10.7,155.2,10.5,155.3,10.4z"/>
		<path class="st6" d="M0.9,217.9h3.5v16.2c0.3-0.5,0.6-0.9,0.7-1.2c0.2-0.3,0.4-0.6,0.6-0.8c0.9-1,1.9-1.7,3-2.2s2.1-0.8,3-0.9
			c0.9-0.1,1.6-0.2,2-0.1c0.4,0,1.1,0.1,2,0.2c0.9,0.1,1.9,0.4,3.1,0.9c0.9,0.4,1.9,1.2,2.9,2.2c1,1,1.8,2.4,2.4,4.1
			c0.6,1.7,1,3.8,1.1,6.3c0,1.4-0.1,2.6-0.3,3.6c-0.2,0.9-0.4,1.7-0.6,2.2c-0.9,2.5-2.4,4.5-4.5,6.1c-2,1.6-4.4,2.4-7.1,2.4
			c-0.4,0-1.2-0.1-2.1-0.2c-0.9-0.1-1.9-0.5-3-1.1c-0.8-0.4-1.4-1-1.9-1.6s-1-1.2-1.5-1.9l-0.2,4.2H0.4c0.1-2.2,0.3-4.3,0.3-6.4
			v-5.7c0-3.8,0.1-7.6,0.1-11.5C0.8,227.8,0.8,222.9,0.9,217.9L0.9,217.9z M4.2,243.4c0.1,2.8,0.4,5,1.2,6.5
			c0.7,1.6,1.7,2.7,2.8,3.4c1.4,0.9,2.9,1.3,4.5,1.3c1.2,0,2.3-0.2,3.1-0.6c0.8-0.4,1.4-0.7,1.7-1.1c1.1-0.8,2-2,2.7-3.7
			c0.8-1.7,1.2-3.9,1.2-6.8c0-1.3-0.1-2.4-0.2-3.2c-0.1-0.8-0.3-1.5-0.5-2c-0.6-1.8-1.6-3.2-3-4.4c-1.4-1.2-3-1.7-5-1.7
			c-0.8-0.1-1.9,0.1-3.2,0.6s-2.4,1.6-3.6,3.2c-0.6,0.8-1,1.8-1.4,3.1c-0.4,1.3-0.6,3-0.5,5.2L4.2,243.4z"/>
		<path class="st6" d="M34.8,229.5v4.3c0.6-0.8,1.2-1.5,1.8-2.2c0.6-0.6,1.4-1.2,2.2-1.7c1.1-0.5,2.2-0.7,3.2-0.7
			c1,0,1.7,0.1,2.2,0.1v3.2c-0.5-0.1-1.3-0.1-2.4-0.1c-1.2,0-2.3,0.3-3.5,0.9c-1.2,0.6-2.2,1.7-2.8,3.5c-0.1,0.4-0.3,0.9-0.4,1.5
			c-0.1,0.5-0.1,1.3-0.2,2.2v15.8h-3.5v-26.7L34.8,229.5L34.8,229.5z"/>
		<path class="st6" d="M48.4,229.5H52v26.9h-3.6V229.5z M48.4,218H52v3.9h-3.6V218z"/>
		<path class="st6" d="M79.6,234.2v-4.7h3.2v18.5c0.1,2.2,0,4.3-0.1,6.4c-0.1,1.3-0.1,2.5-0.3,3.8c-0.1,1.1-0.3,1.9-0.5,2.8
			c-0.3,0.8-0.7,1.7-1.4,2.5c-1.1,1.2-2.3,2.2-3.7,2.7c-1.4,0.6-2.6,0.9-3.8,1c-1.2,0.1-2,0.1-2.5,0.1c-0.4,0-1,0-1.9-0.1
			c-0.9-0.1-1.9-0.3-3-0.6c-1.1-0.4-2.2-0.9-3.2-1.7c-1-0.9-1.7-1.7-1.8-2.2c-0.4-0.9-0.6-1.9-0.6-3h3.5c0.1,0.4,0.2,1,0.5,1.9
			c0.3,0.8,0.9,1.5,1.9,2.2c1,0.5,2,0.9,3,0.9c1.1,0.1,1.7,0.1,1.9,0.1c2,0,3.6-0.4,4.8-1c1.2-0.6,1.9-1.3,2.4-2.1
			c0.3-0.4,0.5-0.9,0.6-1.5s0.4-1.4,0.6-2.4l0.2-6.3c-0.5,0.7-1.1,1.4-1.6,1.9c-0.5,0.6-1.2,1.2-1.9,1.7c-1.2,0.7-2.3,1.2-3.3,1.3
			c-1.1,0.2-1.9,0.3-2.4,0.2c-0.6,0-1.4-0.1-2.6-0.3c-1.2-0.2-2.4-0.7-3.7-1.5c-0.9-0.5-1.7-1.2-2.5-2.2c-0.9-0.9-1.5-2.2-2.1-3.7
			s-0.9-3.5-0.9-5.8c0-0.8,0.1-1.9,0.3-3.3c0.2-1.4,0.8-3,1.7-4.7s2.3-3.1,4.2-4.4c0.5-0.4,1.2-0.7,2.3-1.2c1.1-0.4,2.3-0.6,3.8-0.6
			c1.3,0,2.6,0.2,3.7,0.7c1.2,0.4,2.3,1.2,3.2,2.1c0.7,0.8,1.3,1.7,1.8,2.4L79.6,234.2z M61.8,242.5c-0.1,0.9,0,1.8,0.1,2.5
			c0.1,0.7,0.1,1.2,0.3,1.6c0.5,2.2,1.5,4,3,5.3c1.4,1.4,3.4,2.1,5.7,2.2c1.7-0.1,3-0.4,4.1-1.1c1-0.6,1.7-1.2,2.2-1.7
			c1.3-1.6,2-3.2,2.3-4.8s0.4-2.7,0.3-3.4c0-0.6,0-1.5-0.1-2.9c-0.2-1.9-0.7-3.3-1.3-4.3c-0.6-1.1-1.3-1.9-1.9-2.4
			c-0.4-0.4-1-0.8-1.8-1.2c-0.8-0.4-1.9-0.6-3.2-0.7c-0.4,0-0.9,0.1-1.5,0.1c-0.6,0.1-1.4,0.4-2.2,0.7c-1.7,0.9-3,1.9-3.8,3.3
			c-0.8,1.4-1.4,2.7-1.6,4C62.1,241.1,61.9,242,61.8,242.5L61.8,242.5z"/>
		<path class="st6" d="M94.5,217.7v15.6c0.5-0.5,1-1.1,1.5-1.6c0.5-0.6,1.4-1.2,2.4-1.9c1.2-0.7,2.7-1.1,4.7-1.2
			c1.9,0,3.6,0.5,5.2,1.4c1.6,0.9,2.7,2.2,3.5,3.8c0.3,0.9,0.5,1.7,0.6,2.4c0.1,0.8,0.1,1.3,0.1,1.6v18.4H109l0.1-18.5
			c0-0.1-0.1-0.4-0.1-1c-0.1-0.6-0.2-1.1-0.4-1.5c-0.5-1.3-1.3-2.3-2.4-3c-1.1-0.6-2.3-1-3.7-1c-0.4,0-1.1,0.1-1.9,0.2
			c-0.8,0.1-1.6,0.5-2.4,1c-0.9,0.5-1.6,1.3-2.2,2.4c-0.6,1.2-1.1,2.5-1.3,4c-0.2,1.4-0.3,2.8-0.3,4.2v13.2h-3.6v-38.5L94.5,217.7
			L94.5,217.7z"/>
		<path class="st6" d="M116.9,229.5h5.1v-5.8l3.5-1.7v7.5h5.8v2.4h-5.8v18.4c-0.1,0.5,0,1,0,1.4c0.1,0.4,0.2,0.9,0.5,1.3
			c0.4,0.5,0.8,0.9,1.2,0.9c0.4,0.1,0.8,0.1,1,0.1c0.6,0,1.3-0.1,1.9-0.2c0.6-0.1,1-0.1,1.1-0.2v2.8c-1,0.1-1.8,0.2-2.3,0.3
			c-0.6,0.1-1.1,0.1-1.7,0.1c-0.4,0-0.9,0-1.7-0.1s-1.5-0.6-2.3-1.2c-0.6-0.6-0.9-1.4-1.2-2c-0.1-0.7-0.3-1.4-0.3-2.3v-19.2h-5.1
			v-2.4L116.9,229.5z"/>
		<path class="st6" d="M168.1,229.6h4.7l7.1,23.8l7.8-23.8h3.5l-9.7,26.9H178c-1.5-4.4-3-8.8-4.5-13.2c-0.8-2.4-1.6-5-2.3-7.5
			c-0.4-1.3-0.7-2.7-1.1-4c-1.3,4.5-2.7,8.9-4.2,13.4c-1.3,3.7-2.6,7.5-3.9,11.2h-3.7l-9-26.9h3.6c1.6,4.5,3,9.1,4.5,13.6
			c1.1,3.5,2.1,7.1,3.1,10.6c0.8-3,1.7-6,2.7-9c0.9-2.9,1.9-5.8,2.9-8.7C166.8,233.9,167.4,231.7,168.1,229.6z"/>
		<path class="st6" d="M195,242.5c0-0.7,0.1-1.8,0.4-3.3c0.3-1.5,0.9-3.2,1.8-4.8s2.4-3.1,4.5-4.2c0.4-0.2,1.2-0.5,2.2-0.9
			c1-0.3,2.2-0.5,3.5-0.5c0.5,0,1.3,0.1,2.2,0.2c1,0.1,2.1,0.5,3.2,1.1c1.2,0.5,2.2,1.4,3.3,2.4c0.7,0.7,1.5,1.9,2.3,3.6
			c0.8,1.7,1.2,3.9,1.2,6.6c-0.1,3-0.6,5.4-1.5,7.3c-0.9,1.9-1.9,3.2-2.7,4c-1.1,1-2.3,1.8-3.7,2.3c-1.4,0.5-2.9,0.8-4.4,0.8
			c-3.2,0-6-1.2-8.3-3.5c-1.2-1.4-2.2-2.7-2.7-4.2c-0.6-1.4-0.9-2.8-1.1-4C195,244.1,194.9,243.2,195,242.5L195,242.5z M198.2,241.9
			c-0.1,2,0.1,3.9,0.6,5.7c0.6,1.8,1.6,3.4,3.2,4.8c1.1,0.9,2.1,1.4,3,1.7c0.9,0.3,1.7,0.4,2.3,0.4c2.7-0.1,4.9-1.2,6.5-3.4
			c1.1-1.7,1.8-3.4,2-5s0.3-2.7,0.3-3.4c0-0.6,0-1.4-0.1-2.4c-0.1-1.1-0.4-2.3-1-3.5c-0.5-1.3-1.4-2.4-2.7-3.5
			c-0.4-0.4-1-0.7-1.8-1.2c-0.8-0.4-1.9-0.6-3.2-0.6c-1.2,0-2.5,0.3-3.9,0.9c-1.4,0.6-2.5,1.7-3.5,3.2
			C198.9,237.1,198.4,239.3,198.2,241.9L198.2,241.9z"/>
		<path class="st6" d="M229.5,229.5v4.3c0.6-0.8,1.2-1.5,1.8-2.2c0.6-0.6,1.4-1.2,2.2-1.7c1.1-0.5,2.2-0.7,3.2-0.7
			c1,0,1.7,0.1,2.2,0.1v3.2c-0.5-0.1-1.3-0.1-2.4-0.1c-1.2,0-2.3,0.3-3.5,0.9c-1.2,0.6-2.2,1.7-2.8,3.5c-0.1,0.4-0.3,0.9-0.4,1.5
			c-0.1,0.5-0.1,1.3-0.2,2.2v15.8h-3.5v-26.7L229.5,229.5L229.5,229.5z"/>
		<polygon class="st6" points="243.2,256.3 246.8,256.3 246.8,217.8 243.2,217.8 		"/>
		<path class="st6" d="M274.4,233.9v-16.1h3.4v38.4h-3.4l-0.1-4.5c-0.4,0.6-0.9,1.2-1.4,1.7c-0.6,0.8-1.5,1.6-2.7,2.4
			c-1.2,0.8-3,1.3-5.4,1.4c-2.4,0.1-4.7-0.6-6.6-2.2c-0.7-0.6-1.4-1.4-2.2-2.4c-0.7-1-1.4-2.4-1.9-4c-0.5-1.6-0.8-3.5-0.9-5.6
			c-0.1-0.9,0.1-2.1,0.4-3.8c0.3-1.7,1.1-3.5,2.3-5.4c1.1-1.6,2.4-2.8,4-3.7s3.3-1.4,5.2-1.4c0.6-0.1,1.7,0.1,3.1,0.4
			c1.4,0.4,2.8,1.2,4.2,2.4c0.6,0.7,1.3,1.4,1.8,2.3L274.4,233.9z M256.8,243c0,2.7,0.4,4.8,1.2,6.4c0.8,1.6,1.7,2.7,2.6,3.5
			c0.4,0.4,1,0.7,1.9,1.2c0.9,0.4,1.9,0.6,3.2,0.6c0.5,0,1.2-0.1,2-0.3c0.9-0.2,1.7-0.7,2.7-1.6c1.3-1.2,2.2-2.5,2.7-4
			c0.6-1.4,0.9-2.7,1-4c0.1-1.2,0.1-2.1,0.1-2.6c0-1.2-0.1-2.4-0.4-3.5c-0.2-1.2-0.6-2.2-1.3-3.3c-0.2-0.4-0.6-0.9-1.2-1.6
			c-0.6-0.6-1.3-1.2-2.3-1.7c-0.9-0.5-2.1-0.8-3.5-0.8c-2.4,0.1-4.5,1.1-6,3c-1,1.2-1.7,2.6-2.2,4.1
			C257.1,239.9,256.9,241.5,256.8,243L256.8,243z"/>
	</g>
	<g>
		<path class="st7" d="M44.2,226.7c0,3.7-0.8,6.6-2.5,8.8c-1.6,2.2-3.8,3.3-6.6,3.3c-3.3,0-5.8-1.2-7.5-3.7l-0.1,3.3h-2.5v-33.8h2.6
			V218c1.7-2.6,4.1-3.9,7.4-3.9c2.8,0,5,1.1,6.7,3.2c1.6,2.1,2.4,5.1,2.4,9V226.7z M41.6,226.2c0-3.1-0.6-5.6-1.8-7.3
			c-1.2-1.7-2.9-2.6-5.1-2.6c-1.7,0-3.1,0.4-4.3,1.2c-1.2,0.8-2.1,2-2.7,3.6V232c1.3,3,3.6,4.5,7,4.5c2.2,0,3.9-0.9,5.1-2.6
			C41,232.2,41.6,229.6,41.6,226.2z"/>
		<path class="st7" d="M61,216.8c-0.6-0.1-1.1-0.2-1.8-0.2c-1.6,0-3,0.5-4.2,1.4c-1.1,0.9-1.9,2.2-2.4,4v16.3H50v-23.8h2.6l0,3.8
			c1.4-2.8,3.6-4.2,6.7-4.2c0.7,0,1.3,0.1,1.7,0.3L61,216.8z"/>
		<path class="st7" d="M65,207.7c0-0.5,0.2-0.9,0.5-1.3s0.8-0.5,1.3-0.5s1,0.2,1.3,0.5c0.3,0.3,0.5,0.8,0.5,1.3s-0.2,0.9-0.5,1.2
			c-0.3,0.3-0.8,0.5-1.3,0.5s-1-0.2-1.3-0.5C65.2,208.6,65,208.2,65,207.7z M68.1,238.3h-2.6v-23.8h2.6V238.3z"/>
		<path class="st7" d="M74.2,226.2c0-3.7,0.8-6.7,2.5-8.8c1.6-2.2,3.9-3.3,6.7-3.3c3.2,0,5.7,1.3,7.4,3.9l0.1-3.4h2.5v23.3
			c0,3.1-0.9,5.5-2.6,7.3s-4,2.7-7,2.7c-1.7,0-3.2-0.4-4.7-1.1c-1.5-0.7-2.7-1.7-3.5-3l1.5-1.6c1.9,2.3,4.1,3.4,6.6,3.4
			c2.2,0,3.9-0.6,5.1-1.9c1.2-1.3,1.9-3.1,1.9-5.4v-3c-1.7,2.3-4.1,3.5-7.4,3.5c-2.8,0-5-1.1-6.6-3.3s-2.5-5.2-2.5-8.9V226.2z
			 M76.9,226.7c0,3,0.6,5.4,1.8,7.2c1.2,1.8,2.9,2.6,5.1,2.6c3.2,0,5.5-1.5,6.9-4.4v-11.1c-0.6-1.5-1.5-2.7-2.7-3.5
			c-1.2-0.8-2.5-1.2-4.2-1.2c-2.2,0-3.9,0.9-5.2,2.6C77.5,220.7,76.9,223.3,76.9,226.7z"/>
		<path class="st7" d="M102.8,218.6c0.9-1.4,2-2.5,3.3-3.3s2.8-1.2,4.4-1.2c2.5,0,4.4,0.7,5.7,2.2s1.9,3.6,1.9,6.5v15.6h-2.6v-15.6
			c0-2.1-0.5-3.7-1.4-4.7c-0.9-1-2.3-1.6-4.3-1.6c-1.6,0-3.1,0.5-4.3,1.5c-1.3,1-2.2,2.4-2.8,4.1v16.3h-2.6v-33.8h2.6V218.6z"/>
		<path class="st7" d="M129,208.5v6.1h4.9v2.2H129v15.9c0,1.3,0.2,2.3,0.7,2.9c0.5,0.6,1.3,1,2.4,1c0.4,0,1.1-0.1,2.1-0.2l0.1,2.1
			c-0.7,0.2-1.6,0.4-2.8,0.4c-1.8,0-3.1-0.5-3.9-1.6c-0.8-1-1.2-2.6-1.2-4.6v-15.9H122v-2.2h4.4v-6.1H129z"/>
		<path class="st7" d="M156,232.9l0.4,2l0.5-2.2l5.7-18.2h2.2l5.6,18l0.6,2.5l0.5-2.3l4.9-18.2h2.7l-6.9,23.8h-2.2l-6.1-18.9
			l-0.3-1.3l-0.3,1.3l-6,18.8h-2.2l-6.9-23.8h2.7L156,232.9z"/>
		<path class="st7" d="M182.8,226.1c0-2.3,0.4-4.3,1.3-6.2c0.9-1.8,2.1-3.3,3.8-4.3c1.6-1,3.5-1.5,5.5-1.5c3.2,0,5.7,1.1,7.7,3.3
			c2,2.2,2.9,5.2,2.9,8.8v0.5c0,2.3-0.4,4.4-1.3,6.2c-0.9,1.8-2.1,3.3-3.7,4.3s-3.5,1.5-5.5,1.5c-3.1,0-5.7-1.1-7.7-3.3
			c-2-2.2-3-5.2-3-8.8V226.1z M185.4,226.8c0,2.8,0.7,5.2,2.2,7c1.5,1.8,3.4,2.7,5.8,2.7c2.4,0,4.3-0.9,5.8-2.7
			c1.5-1.8,2.2-4.2,2.2-7.2v-0.5c0-1.8-0.3-3.5-1-5c-0.7-1.5-1.6-2.7-2.8-3.5c-1.2-0.8-2.6-1.2-4.2-1.2c-2.3,0-4.3,0.9-5.7,2.8
			c-1.5,1.8-2.2,4.2-2.2,7.2V226.8z"/>
		<path class="st7" d="M220.4,216.8c-0.6-0.1-1.2-0.2-1.8-0.2c-1.6,0-3,0.5-4.2,1.4c-1.1,0.9-1.9,2.2-2.4,4v16.3h-2.6v-23.8h2.6
			l0,3.8c1.4-2.8,3.6-4.2,6.7-4.2c0.7,0,1.3,0.1,1.7,0.3L220.4,216.8z"/>
		<path class="st7" d="M227.5,238.3h-2.6v-33.8h2.6V238.3z"/>
		<path class="st7" d="M233.6,226.2c0-3.7,0.8-6.6,2.5-8.8c1.6-2.2,3.9-3.3,6.7-3.3c3.2,0,5.7,1.3,7.3,3.8v-13.3h2.6v33.8h-2.5
			l-0.1-3.2c-1.7,2.4-4.2,3.6-7.4,3.6c-2.7,0-4.9-1.1-6.6-3.3c-1.7-2.2-2.5-5.2-2.5-8.9V226.2z M236.3,226.7c0,3,0.6,5.4,1.8,7.2
			c1.2,1.8,2.9,2.6,5.1,2.6c3.2,0,5.5-1.4,6.9-4.3V221c-1.4-3.1-3.6-4.6-6.9-4.6c-2.2,0-3.9,0.9-5.2,2.6
			C236.9,220.7,236.3,223.3,236.3,226.7z"/>
	</g>
</g>
<g id="Guardianship">
	<g>
		<g>
			<polygon class="st1" points="120.7,145.2 96.4,152.3 87.6,176.6 125.2,190.5 134.2,166.4 			"/>
			<path class="st7" d="M121,160.3c0,0-0.5-0.1-0.6-0.2c-0.2,0-0.1-0.4,0.2-0.3c0.3,0.1,0.6,0.1,0.6,0.1L121,160.3z"/>
			<path class="st7" d="M121.2,161.1c0,0.3,0.2,0.5,0.5,0.6c0.3,0,0.7-0.1,1.1-0.2c0.4-0.2,1.5-2.5,1-2.8c-0.2-0.1-0.7-0.2-0.9-0.3
				c-0.7-0.2-0.8,0.1-1.1,0.6C121.6,159.3,121.3,160.6,121.2,161.1z"/>
			<path class="st7" d="M123.9,160.5c0.8,0,0.5,0.7,1.2,0.6c0.2,0,0.5,0,0.7,0.2c0.4,0.6,1,0.3,1.4,1c0.1,0.2,0.6,0.3,0.6,0.3
				c0.1-0.1,0.2-0.3,0.3-0.5c0.6-0.8,0.5-1.5,1.1-2.4c0,0-0.1-0.1-0.4-0.1c-0.4-0.2-0.6,0-1-0.2c-0.1-0.1-0.3,0-0.4,0l-0.2,0
				c-0.4,0-0.6-0.3-0.9-0.5c-0.3-0.2-0.8,0.2-1.2,0l-0.1-0.1l-0.3-0.2c-0.4-0.2-0.2-0.4-0.6-0.2C124.6,159,123.9,160.5,123.9,160.5z
				"/>
			<path class="st0" d="M122.2,160.1c-0.3-0.1,0.1-0.9,0.3-0.8S122.5,160.2,122.2,160.1z"/>
			<path class="st8" d="M119.7,162.5l3.4,1.2c2.7,1.5,4.6,0.8,7.8-0.5l1.2,1.8c-1,0.7-6.9,1.8-8.8,0.8c-0.3,4.7-1.3,9.8-2.4,14.1
				c-5.3-0.6-7.3-0.3-9.1-3.4c2.9-2.8,5.7-5.5,6.3-7.9c0.7-1.1-1.5-2.6,0.9-4.6c-2,0.7-4.4,2.8-6.9,5.2l-1.1-1.5
				c2.9-2.2,5.5-4.4,7.3-5.1C118.6,162.4,119.1,162.4,119.7,162.5z"/>
			<polygon class="st0" points="120.7,164.8 122.1,163.5 120.8,163 			"/>
			<path class="st0" d="M119.7,171.4c-0.1,0-0.2-0.2-0.3-0.3c0-0.1,0.1-0.3,0.2-0.3c0.2,0,0.3,0,0.3,0.2
				C120,171.1,119.8,171.4,119.7,171.4z"/>
			<path class="st0" d="M120.2,169.7c-0.1,0-0.2-0.2-0.3-0.3c0-0.1,0.1-0.3,0.2-0.3c0.1,0,0.3,0,0.3,0.2
				C120.4,169.4,120.3,169.7,120.2,169.7z"/>
			<path class="st0" d="M120.3,168c-0.1,0-0.2-0.2-0.3-0.3c0-0.1,0.2-0.3,0.2-0.3s0.3,0,0.3,0.2C120.6,167.7,120.4,168,120.3,168z"
				/>
			<path class="st7" d="M113.2,178.6c0.4,0.4,1.1,0.7,1.7,0.9l-0.9,1.2l-1.4,4.5l-0.9-0.4l1-4.6L113.2,178.6z"/>
			<polygon class="st7" points="117.3,179.7 119.3,179.9 118.3,182.9 116.8,186.6 115.9,186.3 117,182.7 			"/>
			<path class="st7" d="M112.2,164.3c0,0.3,0.2,0.5,0.5,0.6c0.3,0,0.7-0.1,1.1-0.2c0.4-0.2,1.5-2.5,1-2.8c-0.2-0.1-0.7-0.2-0.9-0.3
				c-0.7-0.2-0.8,0.1-1.1,0.6C112.7,162.5,112.3,163.8,112.2,164.3z"/>
			<path class="st0" d="M113.7,163.3c-0.3-0.1,0.1-0.9,0.3-0.8C114.3,162.6,114,163.4,113.7,163.3z"/>
			<path class="st7" d="M114.5,163.9l0.6,0.3c0,0,0.1,0.1,0.2-0.1c0.1-0.2,0-0.2,0-0.2l-0.6-0.3L114.5,163.9z"/>
			<path class="st7" d="M107.5,161.6l3.6,3.1l2.8,1.3c1.7,0.5,3.3,0.8,4.9,1l-0.1,2l-5.2-1.9c-0.6,1.6-1,3.9-1.5,6.3
				c-1.5-0.7-3-1.2-4.6-1.6c1.3-2,2.3-4.1,3-6.2c-1-1.5-2.7-1.2-3.8-2.4L107.5,161.6z"/>
			<path class="st7" d="M108.1,172c-1.7,2.8-3.5,5.9-5.3,9.4c0.8,0.3,1.6,0.6,2.3,0.8c1.1-3,2.6-6.3,4.3-9.8L108.1,172z"/>
			<path class="st7" d="M110,172.7c-1,3.3-2.2,6.7-3.5,10.1c0.7,0.3,1.4,0.5,2.3,0.8c1-3.6,1.8-7.1,2.5-10.5L110,172.7z"/>
			<polygon class="st0" points="112.1,165.9 112.2,166.3 112.6,166.1 112.5,165.6 			"/>
			<path class="st0" d="M112,166.7c-0.7,1.8-1.4,3.5-2.2,4.5c0.2,0.4,0.5,0.6,1,0.4L112,166.7z"/>
			<path class="st7" d="M111.2,156.3l0.6,0.3c0,0,0.1,0.1,0.2-0.1c0.1-0.2,0-0.2,0-0.2l-0.6-0.3L111.2,156.3z"/>
			<path class="st7" d="M109.9,152.4l-1.5-1.4c0,0-0.2-0.1-0.3,0c-0.1,0.2,0,0.3,0,0.3l1.6,1.3c0,0,0.1,0.1,0.2,0
				C110,152.5,109.9,152.4,109.9,152.4z"/>
			<path class="st7" d="M109.1,153.2l-1.7-1.2c0,0-0.2-0.1-0.3,0.1s0.1,0.3,0.1,0.3l1.8,1.1c0,0,0.1,0.1,0.2,0
				C109.3,153.4,109.1,153.3,109.1,153.2L109.1,153.2z"/>
			<path class="st7" d="M108.6,154.1l-1.8-0.9c0,0-0.2,0-0.3,0.1c-0.1,0.2,0.1,0.3,0.1,0.3l1.9,0.8c0,0,0.2,0,0.2-0.1
				C108.8,154.2,108.7,154.1,108.6,154.1L108.6,154.1z"/>
			<path class="st7" d="M111,153.1c0.7,0.4,0.6,1.2,0.4,1.7c0,0-0.1,0.3-0.3,0.6c-0.2,0.4-0.7,1.3-1.2,1.6c-0.2,0.1-0.4,0.2-0.8,0
				c-0.8-0.4-0.2-2.1,0-2.7C109.6,153.3,110.1,152.6,111,153.1L111,153.1z"/>
			<path class="st0" d="M110.5,154.3l-0.2,0.5c0,0-0.1,0.2,0.1,0.3c0.2,0.1,0.3-0.1,0.3-0.1l0.2-0.5c0,0,0.1-0.2-0.1-0.3
				C110.6,154.1,110.5,154.2,110.5,154.3L110.5,154.3z"/>
			<path class="st8" d="M110.3,158.7l1.9,6.8l-2,1l-0.9-6c-1.2,1.9-1.4,3.5-2.4,6.2c-1-0.5-3.6-1.6-5.5-2.1c1.7-2.8,3.6-4.9,4.1-6.4
				c-1-2.5-2.7-5.3-4-6.5l2.4-0.8l2.8,5.8C107.8,157.9,108.7,158.2,110.3,158.7z"/>
			<path class="st8" d="M101.5,165.1c1.9,0.6,3.2,1,5,1.8c-1,1.6-2.1,4-3.2,6.6l-2.9,6.9c-0.8-0.3-1.8-0.7-2.4-0.9
				c2.2-4.4,5-9.3,5.7-11.2c0.4-1.1-0.3-1.5-1.1-0.6l-3.2,3.8c-0.8,1.6-1,5.2-1.6,8c-0.7-0.3-1.7-0.7-2.4-0.9c0.6-3.1,1.3-6,2.1-8.1
				L101.5,165.1z"/>
			<path class="st0" d="M105.5,163c-0.1,0-0.2-0.2-0.2-0.4c0-0.1,0.2-0.3,0.3-0.2c0.2,0,0.3,0.1,0.2,0.3
				C105.8,162.8,105.6,163,105.5,163z"/>
			<path class="st0" d="M106.4,161.5c-0.1,0-0.2-0.2-0.2-0.4c0-0.1,0.2-0.3,0.3-0.2s0.3,0.1,0.2,0.3
				C106.8,161.3,106.6,161.5,106.4,161.5z"/>
			<path class="st0" d="M107.1,159.9c-0.1,0-0.2-0.2-0.2-0.4c0-0.1,0.3-0.2,0.3-0.2s0.3,0.1,0.2,0.3
				C107.4,159.7,107.2,159.9,107.1,159.9z"/>
		</g>
		<path class="st7" d="M120.1,145c-6.4,2-14.8,4.2-23.9,6.5l0.8,1.8c5.4-2.1,14.1-4.8,23.4-7.5L120.1,145z"/>
		<path class="st7" d="M97.2,153.8c-2.8,8.3-5.6,16.1-8.3,23.2l1.9,0.9c2.4-7,4.9-15.1,7.5-23.8L97.2,153.8z"/>
		<polygon class="st7" points="121.2,145 134.9,165.8 133.5,166.8 120.5,145.5 		"/>
		<path class="st7" d="M132.5,166.7c-4,8-7.6,15.6-10.8,22.8l1.7,0.9c3.3-8.3,6.6-16.2,9.9-23.4L132.5,166.7z"/>
		<path class="st7" d="M91.3,177.3l-0.3,0.7c10.1,3.4,20.2,7.2,30.4,11.3l0.2-0.5C111.3,184.8,101.2,180.9,91.3,177.3z"/>
	</g>
</g>
<g id="Boy">
	<g>
		<path class="st0" d="M60.5,26.7l-0.9,0.9c0,0-0.1,0.2-0.4-0.1c-0.3-0.3-0.1-0.4-0.1-0.4l0.9-0.9L60.5,26.7z"/>
		<path class="st0" d="M60.6,19l1.9-3.4c0,0,0.3-0.3,0.5-0.1c0.3,0.2,0.1,0.5,0.1,0.5L61,19.3c0,0-0.2,0.2-0.4,0.1
			C60.4,19.3,60.6,19,60.6,19z"/>
		<path class="st4" d="M85.9,21.3l7.7,1.9c1.3,0.3,3.4,1.2,3.4,1.2c0.4-0.3,1.8-1.1,2.2-1.1c0.4,0,1.4,0.3,1.8,0.6
			c-0.1,0.5-0.7,2.6-1,3.3c-0.2,0.5-0.9,0.3-1.2,0.3c-0.5,0-1.8-0.7-2.2-1l-1.6,0c-0.3,0-1.1-0.2-2-0.4c-1.7-0.5-4.6-1.2-6.2-1.4
			c-0.3,0-0.6-0.1-0.9-0.1L85.9,21.3z"/>
		<path class="st8" d="M85,21l-0.1,3.6c-3.1,0.2-6.1,1.7-8.1,4l7.7,7.3l-9.2,9.9L65,38.4l-0.5,0.7l4.9,3.5l-5.8,2.5
			c-0.2-1.2-1.8-10.3-1.2-11.4c0.1-0.3,0.9-1.1,1.8-2.1c2.2-2.4,6.7-7.7,9-9.1c0.7-0.4,1.5-0.8,2.5-1.2c3-1.3,6.1-2.4,9.3-3.1L85,21
			L85,21z"/>
		<path class="st4" d="M70.1,34.6c0.5,0.5,1.3,2.7,1.7,3.3c0.5,0.9,1.3,1.6,1.9,2.4c0.2,0.3,1.5,0.3,1.7-0.2
			c0.9-1.7,4.5-3.7,5.8-5.3c1.4-1.6,2-2.2,3.9-3.3L83.5,28l-0.5,0.6c-1,1.1-2.1,2.1-3.2,3c-2,1.9-4,3.6-5.7,5.9l-1.5-1.3
			c-0.9-0.8-1.7-1.6-2.7-2.3C69.9,34.2,70,34.4,70.1,34.6L70.1,34.6z"/>
		<path class="st8" d="M104.7,16c0.5-1.3,1.3-1.8,2.7-1.4c1.4,0.3,10.2,2.7,11.2,4.4c0.3,0.5,0.2,1.3-0.1,2.4
			c-0.6,2.4-4.2,15-4.6,16.1c-0.4,1.5-2,1.9-3.9,1.2c-1.7-0.6-8.7-2.3-9.5-3l-0.2-0.2l-0.2-0.2c-0.9-0.9-0.6-2.3-0.2-3.4
			c0.7-2.4,4.7-15.2,4.7-15.2C104.7,16.5,104.7,16.2,104.7,16L104.7,16z"/>
		<path class="st0" d="M62.5,20.1l2.3-3.1c0,0,0.3-0.3,0.6,0s0.1,0.6,0.1,0.6l-2.6,2.9c0,0-0.2,0.2-0.4,0.1
			C62.3,20.4,62.5,20.1,62.5,20.1L62.5,20.1z"/>
		<path class="st0" d="M63.9,21.4l2.8-2.6c0,0,0.3-0.2,0.6,0.1c0.3,0.3-0.1,0.6-0.1,0.6l-3,2.5c0,0-0.3,0.1-0.4,0
			C63.6,21.7,63.8,21.4,63.9,21.4L63.9,21.4z"/>
		<path class="st4" d="M85.9,81.4l5.2-3.8l-1.3-2c-0.8-1.2-1.7-2.7-1.9-3.2c-0.5-1-3.3-6-4.3-7.2c-1.1-1.4-0.9-4-1.1-5.7
			c-0.2-1.3-0.3-5.8-0.3-8.1c0.1-2.4,1-4.4,2.3-5.3c1.4-1,3.6,0.6,5,0.8c1.4,0.3,2.7,0.8,4,1.3c4.8,1.7,4.7,1.8,9.4,0.5
			c0.5-0.1,1-0.3,1.4-0.3c1.7-0.1,6.8-1.9,8.7-2.5c1.6-0.5,3.4-0.9,5.1-1.3l-4.6-5c-0.5,0.3-0.9,0.5-1.4,0.7l-0.9,0.3
			c-0.7,0.2-1.2,0.5-1.6,0.7c-1.1,0.7-6.6,2.1-8,2.5c-2.8,0.9-3.8-0.1-5.7-1.4c-0.1-0.1-0.3-0.2-0.5-0.3c-1.3-0.7-8.9-4.5-10.5-5.3
			l-9.2,9.6c0,0.7,0.1,3.2,0.2,4.3c0,0.7,0.2,2.3,0.5,4.3c0.8,5.1,1,8.2,2.9,13.1c1.7,4.4,3.8,8.7,6.2,12.8
			C85.9,81.1,85.9,81.3,85.9,81.4L85.9,81.4z"/>
		<polygon class="st4" points="67.2,32 68.3,32.1 68.3,30.8 66.8,30.5 		"/>
		<path class="st4" d="M64.3,60.3c0.9,0,2.5,0,2.8-0.1c0.1,0,0.9-0.3,1.6-3.1c0.7-2.8,1.9-5.6,2.1-6.6c0.2-1,0.6-3.3,0.6-4
			c0-0.5-0.9-2.9-1.1-3.4l-3.2,1.3c0.1,0.2,0.3,0.5,0.5,0.9c0.2,0.4,0.6,1.1,0.6,1.6c0,0.6-1.3,8.9-1.5,9.4c-0.2,0.4-0.7,0.7-1,0.9
			l-0.6,0.3c-0.7,0.5-1,1.5-1,2.2L64.3,60.3L64.3,60.3z"/>
		<path class="st4" d="M60.6,23l0.6,0.8c0,0,0.3,0.3,0,0.6c-0.3,0.2-0.6-0.1-0.6-0.1L60,23.5c0,0-0.3-0.3,0-0.5S60.6,23,60.6,23
			L60.6,23z"/>
		<path class="st8" d="M105.4,18.9c-0.1,0.2-0.1,0.5-0.3,0.7c-0.2,0.6-3.5,11.1-4.1,13.1c-0.1,0.5-0.5,1.6,0,2.1l0.4,0.3
			c0.5,0.4,6.8,2,8,2.4c1.5,0.6,2.1,0.1,2.3-0.5c0.3-0.9,3.5-11.8,4-13.9c0.4-1.7,0.3-1.4-0.7-2.2c-0.8-0.6-6.5-2.4-8.3-2.8
			C105.9,18,105.6,18.1,105.4,18.9L105.4,18.9z"/>
		<path class="st8" d="M59.1,21c-1,1.1-0.4,2.4,0.3,3.2c0,0,0.3,0.5,0.8,0.9c0.6,0.7,2,2,3,2.2c0.4,0.1,0.8,0.1,1.4-0.5
			c1.2-1.2-0.7-3.8-1.5-4.7C61.7,20.5,60,19.9,59.1,21L59.1,21z"/>
		<path class="st0" d="M60.6,22.6l0.6,0.8c0,0,0.3,0.3,0,0.6c-0.3,0.2-0.5,0-0.6-0.1L60,23.1c0,0-0.3-0.3,0-0.5
			C60.3,22.3,60.5,22.5,60.6,22.6L60.6,22.6z"/>
	</g>
</g>
<g id="College">
	<g>
		<path class="st7" d="M70.3,75.8c-6.4,2.3-13,4.1-20,5L50,83.3c12.3,1,24.3,2.5,37.9,4.6l0.4-2.8C81.5,82.4,75.4,79.4,70.3,75.8z"
			/>
		<path class="st7" d="M50.8,83.9l-0.2,1.5c11.8,0.8,23.9,2.2,36.1,4l-0.3-1.2L50.8,83.9z"/>
		<path class="st7" d="M55.7,86.5c-0.3,4.7-1.2,10.7-2,16.4l5.2,0.6c0.3-3.6,0.4-6.1,1.8-16.6C59.1,86.7,57.4,86.7,55.7,86.5z"/>
		<path class="st7" d="M65.9,87.6c-0.5,5.4-1.2,11.4-2,16.6c1.8,0.2,3.7,0.5,5.2,0.6c0.3-5.2,1.1-11,1.8-16.6L65.9,87.6z"/>
		<path class="st7" d="M76.2,88.9c-0.6,4.9-1.5,10.6-2,16.5c1.7,0.2,3.4,0.5,5.2,0.7c0.6-5.4,1-11.3,1.6-16.5
			C79.4,89.3,78.1,89.2,76.2,88.9z"/>
		<path class="st7" d="M82.7,109.5c-12.1-1.6-23.6-3-33.4-4l0.3-2.1l33.4,4L82.7,109.5z"/>
		<path class="st7" d="M84.8,114.3c-12.8-1.7-25.6-3.3-38.4-4.6c0.2-1.2,0.3-2.4,0.5-3.7c12,1.7,24.9,3.2,38.4,4.6
			C84.9,111.8,84.8,113.1,84.8,114.3z"/>
	</g>
</g>
<g id="Sun">
	<g>
		<path class="st7" d="M174.6,50.2c0.3-3.4,3.5-6.6,6.2-8.5c1.5-1,4.7-2.2,7.9-2.8c3-0.5,5.8,0.9,8.3,2.3c1.8,1,5.2,4.4,6.7,9.2
			c1.5,4.8-0.7,9.8-2,11.9c-1.3,2.2-7,5.5-9.5,6.3c-2.6,0.8-6.6-0.3-8.4-1c-1.9-0.8-6.2-3.9-8-7.5C174.1,56.9,174.3,53.7,174.6,50.2
			z"/>
		<path class="st7" d="M207.9,44.6l7.3-4.8c0,0,1-0.1,1.5,0.5c0.5,0.8-0.1,1.6-0.1,1.6l-7.3,4.8c0,0-0.7,0-1.4-0.7
			C207.3,45.4,207.9,44.6,207.9,44.6z"/>
		<path class="st7" d="M191.1,33.8l-0.1-0.6l0-0.9l0-2.3l0.1-3.3c0,0,0.2-0.6,1.2-0.6c1,0,1.3,0.5,1.3,0.5l-0.1,3.3l0,2.3l0,0.9
			l0,0.1c0,0-0.2,0.9-1.4,1c-1.1,0.2-1.2-0.7-1.2-0.7L191.1,33.8z"/>
		<path class="st7" d="M178.3,35.2l-3.6-8.7c0,0-0.1-0.7,0.8-1.2c0.9-0.3,1.5,0.1,1.5,0.1l3.6,8.7c0,0,0.2,1-0.8,1.3
			s-1.6-0.4-1.6-0.4L178.3,35.2z"/>
		<path class="st7" d="M168.8,53l-11,0.6c0,0-0.5-0.5-0.6-1.3c-0.1-1,0.3-1.2,0.3-1.2l11-0.5c0,0,0.6,0.5,0.7,1.3
			c0.1,1-0.4,1.2-0.4,1.2L168.8,53z"/>
		<path class="st7" d="M180.1,73.1l-6.4,9.3c0,0-0.6,0.5-1.6,0c-0.9-0.5-0.5-1.5-0.5-1.5l6.4-9.3c0,0,0.5-0.7,1.4-0.1
			c0.9,0.6,0.7,1.4,0.7,1.4L180.1,73.1z"/>
		<path class="st7" d="M192.5,75.8l0.3,7.2c0,0-0.2,0.7-1.3,0.9c-1,0.1-1.4-0.8-1.4-0.8l-0.3-7.2c0,0,0.5-0.8,1.3-0.6
			C192,75.3,192.5,75.8,192.5,75.8z"/>
		<path class="st7" d="M204.2,69.2l5.4,6.5c0,0,0.4,0.7-0.5,1.3c-1,0.8-1.4,0.2-1.4,0.2l-5.4-6.5c0,0-0.1-0.7,0.5-1.2
			C203.6,69,204.2,69.2,204.2,69.2z"/>
		<path class="st7" d="M208.7,31.1l-4.5,5.6c0,0-0.6,0.4-1.6-0.2C201.7,36,202,35,202,35l4.5-5.6c0,0,0.9-0.3,1.4,0.4
			C208.6,30.4,208.7,31.1,208.7,31.1z"/>
		<path class="st7" d="M218.1,61.7l-7.2-0.6c0,0-0.7-0.3-0.7-1.4c0-1,1-1.3,1-1.3l7.2,0.6c0,0,0.7,0.6,0.4,1.4
			C218.7,61.3,218.1,61.7,218.1,61.7z"/>
		<path class="st7" d="M166.5,36.4l5.6,4.6c0,0,0.4,0.6-0.2,1.6c-0.6,0.8-1.5,0.5-1.5,0.5l-5.6-4.6c0,0-0.3-0.9,0.4-1.4
			C165.8,36.4,166.5,36.4,166.5,36.4z"/>
		<path class="st7" d="M171.6,64.2l-0.4,0.4l-0.7,0.4l-1.9,1.2l-2.8,1.6c0,0-0.6,0.1-1.1-0.7s-0.3-1.4-0.3-1.4l2.8-1.6l1.9-1.2
			l0.7-0.4l0.1-0.1c0,0,0.8-0.3,1.6,0.7c0.7,0.9,0.1,1.4,0.1,1.4L171.6,64.2z"/>
	</g>
</g>
<g id="Plane">
	<g>
		<g>
			<path class="st7" d="M156.7,11.2l-1-0.7c-1.1-0.5-2.2-1.1-3.5-0.8c-0.4,0.1-4,1.7-7.9,3.3c-3.9,1.8-6.4,2.4-7.5,3
				c1.1,0.7,5,2.1,6.5,2.6c0,0,2.4-1.2,5.4-2.7c2.9-1.5,6.4-3.3,7.3-3.6C156.4,12.1,156.6,11.3,156.7,11.2L156.7,11.2z"/>
			<path class="st7" d="M115.4,9.7c0.7-0.6,1.6-1.1,2.7-1.1c1.6,0,2.4-0.1,4,0.6c1.6,0.7,33.7,13.7,34.7,14l0.8,0.2
				c0.8,0.2,1.3,0.2,1.9-0.4c1.1-1.3,3.8-4.3,4-4.7c0.6-0.6,2.1-0.6,2.9-0.6c0.9,0,3.8-0.5,2.8,1.6c-0.5,1.1-4.5,9.6-5.5,11.3
				c-1.2,1.8-2.1,2.1-3.3,1.6c-0.8-0.3-13.6-5.4-14.6-5.7c-0.5-0.1-1.4-0.5-2.3-0.7c0.4,1.1,1.1,2.9,1.8,4.7
				c0.2,0.6,3.8,9.8,3.8,11.2c0,1.9-3.1-0.1-3.6-0.4c-0.6-0.3-1.8-0.9-2.3-1.3c-0.6-0.6-2.8-4.7-3.8-7.1c-0.9-2.1-4.5-9.1-5.1-10.3
				c-1.8-0.8-14.2-6.4-15.4-7.2c-2.7-1.6-4.2-2.9-4.2-5.2C114.8,10.3,115.2,9.8,115.4,9.7L115.4,9.7z"/>
			<path class="st7" d="M147.8,41.1c-1.8-5.9-4.1-11.5-6.4-17.3c0,0,3.9,1.3,4.8,1.6c1,0.3,13.7,5.4,14.7,5.7c1,0.4,1.3-0.3,1.8-1.1
				c1-1.6,4.7-9.5,5.4-11c-0.4,0-1,0.1-1.6,0.1c-0.5,0-1.4,0-1.9,0.1c-0.4,0.3-3,3.3-4,4.6c-0.9,1.1-2,1.2-3.3,0.8l-0.8-0.2
				c-1.1-0.3-33.3-13.4-34.9-14.1c-1.3-0.6-2.1-0.4-3.5-0.4c-0.6,0-1.3,0.5-1.8,0.9l0.1,0.1c0,0,0-0.1,0.1,0.4
				c0.6,1.8,1.6,2.1,3.3,3.1c1.3,0.8,15.7,7.3,15.7,7.3s4.3,8.5,5.3,10.8c1,2.4,3.1,6.3,3.5,6.7C144.5,39.5,147.2,40.8,147.8,41.1
				L147.8,41.1z"/>
			<path class="st0" d="M119.1,10.4c0,0,0.8,0,1.3,0.3c0.6,0.4,0.4,2.2-0.4,1.8c-0.4-0.2-3.5-2-3.5-2l0.6-1.1
				C117.2,9.3,118.4,10.1,119.1,10.4L119.1,10.4z"/>
			<path class="st0" d="M124.2,12.5c0.5,0,1,0.4,1,0.9c0,0.5-0.4,0.8-0.8,0.8c-0.5,0-1.1-0.4-1.1-0.8
				C123.3,12.9,123.6,12.5,124.2,12.5L124.2,12.5z"/>
			<path class="st0" d="M129,14.8c0.2,0,1,0.1,1,0.8c0,0.7-0.8,0.8-1,0.8c-0.2,0-1-0.1-1-0.8C128,15,128.8,14.8,129,14.8z"/>
			<path class="st0" d="M134.4,17.1c0.5,0,0.6,0.3,0.6,0.8s-0.2,0.8-0.6,0.8c-0.5,0-1-0.4-1-0.8S134,17.1,134.4,17.1z"/>
			<path class="st0" d="M138.7,19.3c0.6,0,1.1,0.3,1.1,0.8c0,0.6-0.6,0.8-1.2,0.8c-0.6,0-0.8-0.4-0.8-0.8
				C137.8,19.6,138.1,19.3,138.7,19.3z"/>
			<path class="st0" d="M143,21c0.6,0,1,0.2,1,0.8c0,0.6-0.4,0.8-1,0.8s-1-0.3-1-0.8C142,21.2,142.4,21,143,21z"/>
			<path class="st0" d="M147.7,22.7c0.5,0,0.9,0.2,0.9,0.7s-0.2,0.8-0.6,0.8c-0.5,0-1.1-0.4-1.1-0.8S147.2,22.7,147.7,22.7z"/>
			<path class="st0" d="M152.2,24.1c0.5,0,0.7,0.4,0.7,0.8c0,0.5-0.4,0.7-0.9,0.7c-0.5,0-0.8-0.2-0.8-0.7
				C151.2,24.4,151.8,24.1,152.2,24.1z"/>
			<path class="st7" d="M165.4,32.2c0.3,0.1,0.8,0.4,1.3,0.7l0.8,0.5c0,0,0.2,0.4-0.1,0.8c-0.2,0.4-0.6,0.3-0.6,0.3l-0.8-0.5
				c-0.4-0.3-0.9-0.5-1.1-0.6c0,0-0.1-0.4,0-0.8C165.1,32.2,165.5,32.2,165.4,32.2L165.4,32.2z"/>
			<path class="st7" d="M169.5,34.5c0.3,0.1,0.8,0.4,1.3,0.6l0.8,0.5c0,0,0.2,0.4-0.1,0.8c-0.2,0.4-0.6,0.3-0.6,0.3l-0.8-0.5
				c-0.4-0.3-0.9-0.5-1.1-0.6c0,0-0.1-0.4,0-0.8C169.2,34.4,169.5,34.4,169.5,34.5L169.5,34.5z"/>
		</g>
		<path class="st0" d="M165.4,21.6l5.4,2.2c0,0,0.1,0.4-0.1,0.7c-0.1,0.4-0.4,0.4-0.4,0.4l-5.4-2.2c0,0-0.2-0.4-0.1-0.8
			C164.9,21.6,165.4,21.5,165.4,21.6L165.4,21.6z"/>
		<path class="st4" d="M178.7,38.5c0.3,0.1,0.9,0.4,1.3,0.7l0.9,0.5c0,0,0.2,0.4-0.1,0.8c-0.2,0.4-0.6,0.3-0.6,0.3l-0.8-0.5
			c-0.4-0.3-0.9-0.5-1.1-0.6c0,0-0.1-0.4,0-0.9C178.4,38.5,178.8,38.5,178.7,38.5L178.7,38.5z"/>
		<path class="st0" d="M183.9,41c0.3,0.1,0.9,0.4,1.3,0.7l0.9,0.5c0,0,0.2,0.4-0.1,0.8c-0.2,0.4-0.6,0.3-0.6,0.3l-0.8-0.5
			c-0.4-0.3-0.9-0.5-1.1-0.6c0,0-0.1-0.4,0-0.9C183.6,41,183.9,41,183.9,41z"/>
		<path class="st0" d="M188.9,43.1c0.3,0.1,0.9,0.4,1.3,0.6l0.9,0.4c0,0,0.2,0.4,0,0.8c-0.2,0.4-0.6,0.4-0.6,0.4l-0.9-0.4
			c-0.5-0.2-0.9-0.5-1.1-0.5c0,0-0.2-0.4,0-0.9C188.6,43.2,188.9,43.1,188.9,43.1z"/>
		<path class="st0" d="M194.1,45.3c0.3,0.1,0.9,0.4,1.3,0.6l0.9,0.4c0,0,0.2,0.4,0,0.8c-0.2,0.4-0.6,0.4-0.6,0.4l-0.9-0.4
			c-0.5-0.2-0.9-0.5-1.1-0.5c0,0-0.2-0.4,0-0.9C193.8,45.4,194.1,45.3,194.1,45.3z"/>
		<path class="st0" d="M198.7,47.2c0.3,0.1,0.9,0.4,1.3,0.6l0.9,0.4c0,0,0.2,0.4,0,0.8c-0.2,0.4-0.6,0.4-0.6,0.4l-0.9-0.4
			c-0.5-0.2-0.9-0.5-1.1-0.5c0,0-0.2-0.4,0-0.9C198.4,47.3,198.7,47.2,198.7,47.2z"/>
		<path class="st4" d="M173.9,36.6c0.3,0.1,0.9,0.4,1.3,0.6l0.9,0.5c0,0,0.2,0.4-0.1,0.8c-0.2,0.4-0.6,0.3-0.6,0.3l-0.8-0.5
			c-0.4-0.3-0.9-0.5-1.1-0.6c0,0-0.1-0.4,0-0.9C173.7,36.6,173.9,36.6,173.9,36.6L173.9,36.6z"/>
	</g>
</g>
<g id="Phone">
	<g>
		<g>
			<path class="st7" d="M224.5,71.2l10.6,11.6c1.6,1.9,1,3.9-0.9,5.6c-8.3,7-16.9,14.6-25.8,22.7c-3.1,2.7-3.8,2.4-5.8,0.7l-10.9-10
				c-1.7-2.2-1.4-4.3,0.9-6.2c9.6-8.5,18.6-16.6,26.8-24.3C221.4,70.1,223.1,70.1,224.5,71.2z"/>
			<path class="st0" d="M220.2,75c3.5,3.9,7.2,7.9,11.1,12.1c-7.2,6.1-14.5,12.6-21.8,19.3c-4.4-4.4-8.6-8.6-11.6-11.1
				C206,88.1,213.7,81.1,220.2,75z"/>
			<path class="st0" d="M226.6,77.4l2.6,2.9c0.5,0.6-0.1,1.2-0.8,0.7l-2.7-3C225.1,77.3,225.8,76.7,226.6,77.4z"/>
			<path class="st0" d="M201.8,101.8c-2.1-1.9-5,1.2-2.6,3.3C201.4,106.8,203.9,103.7,201.8,101.8z"/>
		</g>
		<polygon class="st7" points="228.7,94.7 231.3,103.7 227.9,102.6 227.7,109.6 226.1,100 229,101.2 		"/>
		<polygon class="st8" points="235,89.7 241.9,95.6 239,97.2 242.8,102.4 236.1,96 239,95.3 		"/>
		<polygon class="st8" points="239.6,82.4 250,84.4 247.4,87 254.3,89.6 244.7,87.4 247.3,85.1 		"/>
	</g>
</g>
<g id="Girl">
	<g>
		<g>
			<g>
				<polygon class="st7" points="197.9,167.9 205.9,155 199.6,152.7 191.6,164.3 				"/>
				<path class="st8" d="M188.2,146.2c1.4,0.4,3.8,1.2,6.1,1.9c3.4,1,7.1,2.2,7.7,2.5c0.5,0.2,4.1,1.2,7.8,2c3.6,0.9,8.6,2,8.6,2
					s-3.7,1.9-6.1,3c-1.5,0.7-3,1.4-4.5,2l-0.4,0.2c-0.2,0.1-0.4,0.1-0.5,0c-0.4-0.1-7.9-2.3-9.7-2.8l-2,3c2,0.7,9.4,3.4,11.9,2.9
					c1.4-0.2,10.1-2.4,11.9-2.9c1.7-0.5,2.7-1.3,3.3-1.9c0.5-0.5,3.9-7.3,4.9-9.6c0.9-2,0.8-2.8,0.4-4.7c-3.3-5.8-3.8-7.9-4.7-14.5
					c-0.3-2.2-0.5-4.2-0.7-5.3l-4.2,1.3c0.3,0.6,0.6,1.4,0.7,2.2c0.2,1.4,1.9,8.2,2.8,11.2c0.5,1.6,1.6,3.6,2.8,4.8l-0.8,0.8
					c0,0-1.1-1.1-1.7-1.8c-0.4-0.6-1.3-0.8-2-0.8c-0.9,0-5.2,0.2-5.8-0.2c-0.2-0.1-0.3-0.4-0.4-0.6l-0.1-0.2
					c-0.1-0.3-0.2-0.8-0.6-1.6c-3-5.7-4.5-12-7.4-17.7c-0.3-0.6-0.6-1.1-0.7-1.5c-1.5,0.8-6.2,3.2-8,3.9c-1.3,0.5-1.9,1.3-2.4,2.5
					l-0.3,0.4c-1.2,2.2-2.8,8.3-3.3,9.9c-1.4,4.6-2.6,9-2.6,9L188.2,146.2L188.2,146.2z"/>
				<polygon class="st7" points="222.5,149 225.2,152.1 226.4,149.4 				"/>
				<path class="st7" d="M189.5,103.3l-0.1,3.2c3.4,3.3,8.5,8.5,9.5,9.6c1,1.1,1.7,3.1,2.1,4.6l3.4-1.7l-0.5-1.1
					c-0.4-0.8-0.7-1.5-1-1.8c-0.4-0.6-4.1-4.2-5.4-5.5C196.4,109.5,191.3,104.9,189.5,103.3z"/>
				<path class="st7" d="M162.6,143.1l1.8,2.1c2.8-0.3,6.4-0.7,6.9-0.8c0.9-0.2,8.8-0.7,9.7-0.6c0.4,0.1,2,0.5,3.4,1l2.4,0.8
					l1.6-4.2c-1.5-0.2-6.6-0.8-10.5-0.6C173.8,141,165.1,142.7,162.6,143.1L162.6,143.1z"/>
				<path class="st7" d="M219.1,123.2l0,0.6l3.3-0.8c0-0.4,0.1-1.3,0-1.7c0-0.3-0.2-0.6-0.9-0.6c-0.8,0-2.2,0.6-2.3,1
					C219.1,122.1,219.1,122.7,219.1,123.2L219.1,123.2z"/>
				<path class="st0" d="M209,143.6c0-0.3,0.4-0.4,0.8-0.4c0.3,0,0.6,0.3,0.6,0.6c0,0.4-0.2,0.6-0.6,0.6
					C209.5,144.3,209,143.9,209,143.6z"/>
				<path class="st0" d="M212.4,145.3c0-0.3,0.4-0.4,0.8-0.4c0.3,0,0.6,0.3,0.6,0.6s-0.2,0.6-0.6,0.6
					C212.9,146,212.4,145.6,212.4,145.3z"/>
				<path class="st0" d="M215.9,146.3c0-0.3,0.4-0.4,0.8-0.4c0.3,0,0.6,0.3,0.6,0.6c0,0.4-0.2,0.6-0.6,0.6
					C216.4,147,215.9,146.6,215.9,146.3z"/>
				<path class="st0" d="M232,152.6c0,0,0.6-0.8,0.8-1c0.2-0.3,0.8,0.2,0.4,0.6c-0.4,0.4-0.6,1-0.6,1L232,152.6z"/>
				<path class="st8" d="M230.1,152.2c-0.6-0.4-1.1-0.1-1.7,0.5c-0.2,0.7-0.4,1.5-0.4,2.2c0.1,0.9,3.7,5,4.7,4.3
					c0.4-0.3,0.9-1.1,1.3-1.5c0.9-1.2,0.3-1.6-0.3-2.5C233.4,154.5,231,152.8,230.1,152.2z"/>
				<path class="st0" d="M233.3,159.9c-0.3,0.2-0.8,0.4-1.2,0.3c-0.4-0.1-1.3-0.9-2.1-1.6l-1.1-0.9c-0.8,2-2.1,0.6-2.6,2.3
					c-0.2,0.7-0.4,1.4-1.3,1.5c-1.9,0.4-1.7,2.3-3.6,2.4c-0.5,0.1-1.4,1-1.4,1.2c0.2,0.4,0.5,0.9,0.8,1.2c1.4,2.2,2.9,4.4,4.4,6.5
					l0.2-0.4c0.5-1,1.2-3.3,2.2-3.9c0.2-0.1,0.4-0.7,0.4-0.9l0.2-0.7c0.3-1.1,1.3-1.1,2.1-1.8c0.6-0.5,0.3-2.2,1.2-3l0.3-0.2
					l0.6-0.5C233.2,160.9,233.2,160.9,233.3,159.9L233.3,159.9z"/>
				<path class="st7" d="M231.3,155c0.4-0.4,1.7,0.8,1.2,1.3S230.8,155.5,231.3,155z"/>
			</g>
			<path class="st7" d="M195.5,155.7c0-0.2-0.8-0.9-1.3-1c-0.3-0.1-1.2-0.6-1.5-0.3c-0.4,0.3-1.1,1.6-1.4,2.1l2,2.4
				C193.9,158,195.5,155.9,195.5,155.7L195.5,155.7z"/>
		</g>
		<polygon class="st4" points="198.4,152.5 196.4,151.8 188.4,162.5 190.7,163.6 		"/>
	</g>
</g>
<g id="Mortar_board">
	<g>
		<polygon class="st8" points="202.5,139.2 206.8,147.5 200.2,146.3 		"/>
		<polygon class="st8" points="202.8,142.3 201.9,145.3 204.6,145.9 		"/>
		<path class="st4" d="M149.3,175c-0.9,1.1-2,2.7-2.4,4.3c-0.8,3.6-0.9,5.1-0.5,5.7c0.2,0.3,0.5,1.1,0.7,1.4c2.2-1.3,6.9-4.1,9-4.8
			c1.5-0.5,4.1-0.4,6,0.9c0.5,0.4,0.9,0.6,1.3,0.8c0-5.4,2.3-6.4,6.6-9c0.8-0.5,2.3-1.4,3.7-2.1l1.7-1l0.4-0.2l-0.2-0.4
			c-0.3-0.4-0.7-1-0.9-1.4c-0.4-0.8-1.9-2.6-2.9-3c-0.7-0.2-1.4-0.5-1.8-0.6l-8.4,10.6L149.3,175L149.3,175z"/>
		<polygon class="st7" points="151.9,151.9 133.7,172.1 161.3,175.1 177.7,153.8 		"/>
		<path class="st8" d="M184.3,155c0.3-0.1,0.7-0.3,1.3-0.7c1.2-0.8,15-9,15-9l0.6,1c0,0-13.7,8.2-14.9,9c-0.8,0.5-2.9,1.7-3.2,0
			l0-0.2c-0.1-1.8,0.2-3.5-0.2-5.3c-0.2-1.3-1.3-0.4-2,0c-0.5,0.3-0.9,0.5-1.3,0.8c-1.7,0.9-23.2,12.8-23.2,12.8l-0.6-1.1
			c0,0,21.6-11.8,23.2-12.8c1.4-0.8,4.5-3.1,5.1,0.1C184.5,151.4,184.2,153.2,184.3,155L184.3,155L184.3,155z"/>
		<path class="st8" d="M155.8,160.9l1.4,2.9c0,0,0.1,0.3-0.4,0.5c-0.5,0.3-0.7,0-0.7,0l-1.4-2.9c0,0,0-0.4,0.4-0.6
			C155.6,160.6,155.8,160.9,155.8,160.9z"/>
	</g>
</g>
<g id="Book">
	<g>
		<g>
			<path class="st8" d="M59.9,122.6l22.7-6.1L96.7,141l-1.8,0.5l-0.6,6.4l1.5,1.7c-6.3,1.5-14,3.4-22.7,6.4
				c-3.4,0.9-4.5-1.3-5.1-2.8l-10.8-21.7C55.3,127.9,55.5,123.7,59.9,122.6z"/>
			<path class="st7" d="M94.4,141.5l-0.2,1.6c-9.7,2.7-21.1,5.8-24.4,6.7c0.1-0.4,0.4-1.1,1-1.4L94.4,141.5z"/>
			<polygon class="st7" points="94.1,143.6 69.7,150.4 69.4,151.8 93.9,144.7 			"/>
			<polygon class="st7" points="93.8,145.4 69.4,152.3 69.6,153.5 93.8,146.7 			"/>
			<polygon class="st7" points="93.7,147.4 93.7,148.1 69.9,154.8 69.5,154.1 			"/>
		</g>
		<path class="st7" d="M59.6,123.9l10.9,23.6l-0.2,0.2c-4.5-8.5-8.4-16.6-11.2-23.9H59.6z"/>
	</g>
</g>
<g id="Stars">
	<polygon class="st4" points="125.8,22.3 124.6,25.3 121.6,25.8 124,27.4 122.8,31 125.8,28.2 128.2,30.8 127.4,27 129.1,25.4 
		126.5,25.6 	"/>
	<polygon class="st4" points="93.6,54.9 92.6,57.9 89.5,58.2 91.7,60.1 91,63.8 93.8,61 96.4,63.6 95.6,59.5 97.9,57.7 94.7,57.8 	
		"/>
	<polygon class="st4" points="134.6,184.4 135.8,180.9 136.6,184.4 139.8,184.8 137.3,186 137.8,190.6 135.3,187.9 132.7,190 
		133.5,186.2 131.2,184.4 	"/>
	<polygon class="st4" points="178.3,134.7 179.3,131 180.4,134.7 183.3,134.7 180.9,136.1 181.5,139.5 179.4,137.2 177,139.8 
		177.4,136.1 175.3,134.7 	"/>
	<polygon class="st4" points="221.2,107.3 222,111 225.4,111.2 222.5,113.2 222.8,117.1 220.2,114.1 217.1,117 218.5,113.1 
		215.9,110.5 219.7,110.4 	"/>
</g>
</svg>
