<?xml version="1.0" encoding="UTF-8" standalone="no"?>
<svg
   xmlns:dc="http://purl.org/dc/elements/1.1/"
   xmlns:cc="http://creativecommons.org/ns#"
   xmlns:rdf="http://www.w3.org/1999/02/22-rdf-syntax-ns#"
   xmlns:svg="http://www.w3.org/2000/svg"
   xmlns="http://www.w3.org/2000/svg"
   viewBox="0 0 377.95334 377.95334"
   height="377.95334"
   width="377.95334"
   xml:space="preserve"
   id="svg2"
   version="1.1"><metadata
     id="metadata8"><rdf:RDF><cc:Work
         rdf:about=""><dc:format>image/svg+xml</dc:format><dc:type
           rdf:resource="http://purl.org/dc/dcmitype/StillImage" /></cc:Work></rdf:RDF></metadata><defs
     id="defs6"><clipPath
       id="clipPath18"
       clipPathUnits="userSpaceOnUse"><path
         id="path16"
         d="M 0,283.465 H 283.465 V 0 H 0 Z" /></clipPath><clipPath
       id="clipPath26"
       clipPathUnits="userSpaceOnUse"><path
         id="path24"
         d="M 84.5,87.5876 H 199.499 V 63.3416 H 84.5 Z" /></clipPath><clipPath
       id="clipPath30"
       clipPathUnits="userSpaceOnUse"><path
         style="clip-rule:evenodd"
         id="path28"
         d="m 199.499,75.465 c 0,-6.696 -25.742,-12.123 -57.499,-12.123 -31.756,0 -57.5,5.427 -57.5,12.123 0,6.695 25.744,12.123 57.5,12.123 31.757,0 57.499,-5.428 57.499,-12.123" /></clipPath><radialGradient
       id="radialGradient40"
       spreadMethod="pad"
       gradientTransform="matrix(65.745186,0,0,-13.859086,143.38501,74.734306)"
       gradientUnits="userSpaceOnUse"
       r="1"
       cy="0"
       cx="0"
       fy="0"
       fx="0"><stop
         id="stop32"
         offset="0"
         style="stop-opacity:1;stop-color:#1d150f" /><stop
         id="stop34"
         offset="0.0164835"
         style="stop-opacity:1;stop-color:#1d150f" /><stop
         id="stop36"
         offset="0.851648"
         style="stop-opacity:1;stop-color:#ffffff" /><stop
         id="stop38"
         offset="1"
         style="stop-opacity:1;stop-color:#ffffff" /></radialGradient></defs><g
     transform="matrix(1.3333333,0,0,-1.3333333,0,377.95333)"
     id="g10"><g
       id="g12"><g
         clip-path="url(#clipPath18)"
         id="g14"><g
           id="g20"><g
             id="g22" /><g
             id="g54"><g
               style="opacity:0.11000103"
               id="g52"
               clip-path="url(#clipPath26)"><g
                 id="g50"><g
                   id="g48"
                   clip-path="url(#clipPath30)"><g
                     id="g46"><g
                       id="g44"><path
                         id="path42"
                         style="fill:url(#radialGradient40);fill-rule:evenodd;stroke:none"
                         d="m 199.499,75.465 c 0,-6.696 -25.742,-12.123 -57.499,-12.123 -31.756,0 -57.5,5.427 -57.5,12.123 0,6.695 25.744,12.123 57.5,12.123 31.757,0 57.499,-5.428 57.499,-12.123" /></g></g></g></g></g></g></g><g
           transform="translate(167.8398,140.4729)"
           id="g56"><path
             id="path58"
             style="fill:#595b65;fill-opacity:1;fill-rule:evenodd;stroke:none"
             d="M 0,0 C 3.27,2.226 5.842,4.173 8.348,6.19 L 1.254,7.234 -4.451,2.226 Z m 1.809,25.247 6.189,5.216 32.133,-2.364 18.57,17.318 c 8.764,7.859 15.371,9.18 18.223,6.259 2.433,-2.573 1.668,-8.207 -7.164,-16.344 L 51.816,18.222 49.66,-11.963 42.287,-18.43 37.488,7.86 C 9.736,-18.917 -24.133,-31.854 -64.681,-31.714 c 30.393,2.363 58.283,11.545 75.601,26.29 l -3.477,1.738 c -40.547,-28.377 -93.894,-29.488 -131.52,-14.467 72.751,-21.56 118.097,8.625 135.763,23.787 l 4.242,-0.765 13.006,11.615 z" /></g></g></g></g></svg>