<?xml version="1.0" encoding="UTF-8" standalone="no"?>
<svg
   xmlns:dc="http://purl.org/dc/elements/1.1/"
   xmlns:cc="http://creativecommons.org/ns#"
   xmlns:rdf="http://www.w3.org/1999/02/22-rdf-syntax-ns#"
   xmlns:svg="http://www.w3.org/2000/svg"
   xmlns="http://www.w3.org/2000/svg"
   viewBox="0 0 481.22134 566.92932"
   height="566.92932"
   width="481.22134"
   xml:space="preserve"
   id="svg2"
   version="1.1"><metadata
     id="metadata8"><rdf:RDF><cc:Work
         rdf:about=""><dc:format>image/svg+xml</dc:format><dc:type
           rdf:resource="http://purl.org/dc/dcmitype/StillImage" /></cc:Work></rdf:RDF></metadata><defs
     id="defs6"><clipPath
       id="clipPath18"
       clipPathUnits="userSpaceOnUse"><path
         id="path16"
         d="M 0,425.197 H 360.916 V 0 H 0 Z" /></clipPath></defs><g
     transform="matrix(1.3333333,0,0,-1.3333333,0,566.92933)"
     id="g10"><g
       id="g12"><g
         clip-path="url(#clipPath18)"
         id="g14"><g
           transform="translate(199.2471,373.7964)"
           id="g20"><path
             id="path22"
             style="fill:#595b65;fill-opacity:1;fill-rule:nonzero;stroke:none"
             d="m 0,0 c 4.424,-4.697 4.424,-12.312 0,-17.007 l -123.505,-131.097 c -4.425,-4.696 -11.598,-4.697 -16.023,0 l -1.139,1.208 c -4.423,4.696 -4.423,12.312 0,17.006 L -17.159,1.208 c 4.422,4.696 11.597,4.696 16.02,0 z" /></g><g
           transform="translate(181.6328,373.7964)"
           id="g24"><path
             id="path26"
             style="fill:#595b65;fill-opacity:1;fill-rule:nonzero;stroke:none"
             d="m 0,0 c -4.425,-4.697 -4.425,-12.312 0,-17.007 l 123.505,-131.097 c 4.425,-4.696 11.599,-4.697 16.021,0 l 1.14,1.208 c 4.423,4.696 4.423,12.312 0,17.006 L 17.159,1.208 c -4.424,4.696 -11.597,4.696 -16.021,0 z" /></g><g
           transform="translate(80.9204,120.4258)"
           id="g28"><path
             id="path30"
             style="fill:#595b65;fill-opacity:1;fill-rule:nonzero;stroke:none"
             d="m 0,0 c 0,-3.32 -2.535,-6.013 -5.665,-6.013 -3.127,0 -5.664,2.693 -5.664,6.013 v 114.748 c 0,3.322 2.537,6.013 5.664,6.013 3.13,0 5.665,-2.691 5.665,-6.013 z" /></g><g
           transform="translate(311.2871,120.4258)"
           id="g32"><path
             id="path34"
             style="fill:#595b65;fill-opacity:1;fill-rule:nonzero;stroke:none"
             d="m 0,0 c 0,-3.32 -2.536,-6.013 -5.665,-6.013 -3.126,0 -5.664,2.693 -5.664,6.013 v 114.748 c 0,3.322 2.538,6.013 5.664,6.013 3.129,0 5.665,-2.691 5.665,-6.013 z" /></g><g
           transform="translate(173.3901,249.8828)"
           id="g36"><path
             id="path38"
             style="fill:#595b65;fill-opacity:1;fill-rule:nonzero;stroke:none"
             d="m 0,0 c -3.067,0.125 -5.656,-2.61 -5.783,-6.111 -0.125,-3.5 2.259,-6.44 5.327,-6.563 l 23.429,-0.956 c 3.067,-0.124 5.656,2.612 5.781,6.112 0.13,3.501 -2.254,6.439 -5.323,6.565 z" /></g><g
           transform="translate(202.5791,220.9092)"
           id="g40"><path
             id="path42"
             style="fill:#595b65;fill-opacity:1;fill-rule:nonzero;stroke:none"
             d="m 0,0 c 2.246,-2.223 2.245,-6.101 -0.007,-8.664 -2.247,-2.563 -5.894,-2.84 -8.139,-0.618 L -27.324,9.32 c -2.248,2.222 -0.22,4.467 2.031,7.028 2.248,2.562 5.895,2.839 8.139,0.618 z" /></g><g
           transform="translate(223.5254,220.5103)"
           id="g44"><path
             id="path46"
             style="fill:#595b65;fill-opacity:1;fill-rule:nonzero;stroke:none"
             d="m 0,0 c 3.063,-0.255 5.333,-3.292 5.074,-6.785 -0.259,-3.493 -2.949,-6.117 -6.008,-5.862 l -23.378,1.948 c -3.059,0.255 -5.331,3.294 -5.073,6.784 0.26,3.494 2.948,6.118 6.01,5.861 z" /></g><g
           transform="translate(193.9375,183.9785)"
           id="g48"><path
             id="path50"
             style="fill:#595b65;fill-opacity:1;fill-rule:nonzero;stroke:none"
             d="m 0,0 c 0,-4.426 3.554,-8.016 7.937,-8.016 h 16.035 c 4.385,0 7.94,3.59 7.94,8.016 v 54.069 c 0,4.428 -3.555,8.016 -7.94,8.016 H 7.937 C 3.554,62.085 0,58.497 0,54.069 Z" /></g><g
           transform="translate(211.3711,149.333)"
           id="g52"><path
             id="path54"
             style="fill:#595b65;fill-opacity:1;fill-rule:nonzero;stroke:none"
             d="m 0,0 c 0,-3.582 3.241,-6.487 7.238,-6.487 3.998,0 7.241,2.905 7.241,6.487 v 33.411 c 0,3.58 -3.243,0.442 -7.241,0.442 C 3.241,33.853 0,36.991 0,33.411 Z" /></g><g
           transform="translate(211.3711,120.8985)"
           id="g56"><path
             id="path58"
             style="fill:#595b65;fill-opacity:1;fill-rule:nonzero;stroke:none"
             d="m 0,0 c 0,-3.581 3.241,-6.485 7.238,-6.485 3.998,0 7.241,2.904 7.241,6.485 v 27.368 c 0,3.581 -3.243,6.486 -7.241,6.486 C 3.241,33.854 0,30.949 0,27.368 Z" /></g><g
           transform="translate(193.9375,149.333)"
           id="g60"><path
             id="path62"
             style="fill:#595b65;fill-opacity:1;fill-rule:nonzero;stroke:none"
             d="m 0,0 c 0,-3.582 3.24,-6.487 7.24,-6.487 3.997,0 7.236,2.905 7.236,6.487 v 33.411 c 0,3.58 -3.239,0.442 -7.236,0.442 -4,0 -7.24,3.138 -7.24,-0.442 z" /></g><g
           transform="translate(193.9375,120.8985)"
           id="g64"><path
             id="path66"
             style="fill:#595b65;fill-opacity:1;fill-rule:nonzero;stroke:none"
             d="m 0,0 c 0,-3.581 3.24,-6.485 7.24,-6.485 3.997,0 7.236,2.904 7.236,6.485 v 27.368 c 0,3.581 -3.239,6.486 -7.236,6.486 -4,0 -7.24,-2.905 -7.24,-6.486 z" /></g><g
           transform="translate(198.7461,248.897)"
           id="g68"><path
             id="path70"
             style="fill:#595b65;fill-opacity:1;fill-rule:nonzero;stroke:none"
             d="m 0,0 c -2.657,0 -4.809,-3.141 -4.809,-7.014 0,-3.872 2.152,-7.011 4.809,-7.011 h 27.471 c 2.654,0 4.808,3.139 4.808,7.011 0,3.873 -2.154,7.014 -4.808,7.014 z" /></g><g
           transform="translate(193.1279,270.0547)"
           id="g72"><path
             id="path74"
             style="fill:#595b65;fill-opacity:1;fill-rule:nonzero;stroke:none"
             d="m 0,0 c 0,-9.828 7.506,-17.795 16.765,-17.795 9.258,0 16.764,7.967 16.764,17.795 0,9.828 -7.506,17.794 -16.764,17.794 C 7.506,17.794 0,9.828 0,0" /></g><g
           transform="translate(148.8804,242.4473)"
           id="g76"><path
             id="path78"
             style="fill:#595b65;fill-opacity:1;fill-rule:nonzero;stroke:none"
             d="m 0,0 c -2.942,-0.927 -4.566,-4.399 -3.629,-7.759 0.94,-3.358 4.087,-5.33 7.027,-4.401 l 22.479,7.076 c 2.945,0.926 4.57,4.401 3.631,7.757 -0.94,3.36 -4.084,5.329 -7.028,4.404 z" /></g><g
           transform="translate(183.8213,238.585)"
           id="g80"><path
             id="path82"
             style="fill:#595b65;fill-opacity:1;fill-rule:nonzero;stroke:none"
             d="m 0,0 v -53.971 c 0,-4.467 -3.587,-8.088 -8.013,-8.088 h -16.179 c -4.425,0 -8.012,3.621 -8.012,8.088 V 0 Z" /></g><g
           transform="translate(169.2104,149.6524)"
           id="g84"><path
             id="path86"
             style="fill:#595b65;fill-opacity:1;fill-rule:nonzero;stroke:none"
             d="m 0,0 c 0,-3.616 3.27,-6.546 7.307,-6.546 4.033,0 7.304,2.93 7.304,6.546 v 33.715 c 0,3.614 -3.271,0.446 -7.304,0.446 C 3.27,34.161 0,37.329 0,33.715 Z" /></g><g
           transform="translate(169.2104,120.9571)"
           id="g88"><path
             id="path90"
             style="fill:#595b65;fill-opacity:1;fill-rule:nonzero;stroke:none"
             d="m 0,0 c 0,-3.613 3.27,-6.544 7.307,-6.544 4.033,0 7.304,2.931 7.304,6.544 v 27.618 c 0,3.615 -3.271,6.546 -7.304,6.546 C 3.27,34.164 0,31.233 0,27.618 Z" /></g><g
           transform="translate(151.6177,149.6524)"
           id="g92"><path
             id="path94"
             style="fill:#595b65;fill-opacity:1;fill-rule:nonzero;stroke:none"
             d="m 0,0 c 0,-3.616 3.272,-6.546 7.306,-6.546 4.035,0 7.305,2.93 7.305,6.546 v 33.715 c 0,3.614 -3.27,0.446 -7.305,0.446 C 3.272,34.161 0,37.329 0,33.715 Z" /></g><g
           transform="translate(151.6177,120.9571)"
           id="g96"><path
             id="path98"
             style="fill:#595b65;fill-opacity:1;fill-rule:nonzero;stroke:none"
             d="m 0,0 c 0,-3.613 3.272,-6.544 7.306,-6.544 4.035,0 7.305,2.931 7.305,6.544 v 27.618 c 0,3.615 -3.27,6.546 -7.305,6.546 C 3.272,34.164 0,31.233 0,27.618 Z" /></g><g
           transform="translate(151.1226,262.1216)"
           id="g100"><path
             id="path102"
             style="fill:#595b65;fill-opacity:1;fill-rule:nonzero;stroke:none"
             d="m 0,0 c 0,-9.729 7.432,-17.618 16.599,-17.618 9.165,0 16.595,7.889 16.595,17.618 0,9.729 -7.43,17.617 -16.595,17.617 C 7.432,17.617 0,9.729 0,0" /></g><g
           transform="translate(151.5757,262.1216)"
           id="g104"><path
             id="path106"
             style="fill:#595b65;fill-opacity:1;fill-rule:nonzero;stroke:none"
             d="m 0,0 c 0,-9.45 7.24,-17.137 16.146,-17.137 8.903,0 16.144,7.687 16.144,17.137 0,9.449 -7.241,17.136 -16.144,17.136 C 7.24,17.136 0,9.449 0,0 m -0.906,0 c 0,9.979 7.648,18.097 17.052,18.097 9.4,0 17.048,-8.118 17.048,-18.097 0,-9.98 -7.648,-18.099 -17.048,-18.099 -9.404,0 -17.052,8.119 -17.052,18.099" /></g><g
           transform="translate(181.917,239.9048)"
           id="g108"><path
             id="path110"
             style="fill:#595b65;fill-opacity:1;fill-rule:nonzero;stroke:none"
             d="m 0,0 c 3.129,0 5.662,-2.89 5.662,-6.455 0,-3.566 -2.533,-6.458 -5.662,-6.458 h -27.469 c -3.126,0 -3.952,2.892 -3.952,6.458 0,3.565 0.826,6.455 3.952,6.455 z" /></g><g
           transform="translate(128.4858,156.6172)"
           id="g112"><path
             id="path114"
             style="fill:#595b65;fill-opacity:1;fill-rule:nonzero;stroke:none"
             d="M 0,0 H 78.467 L 39.235,83.288 Z" /></g><path
           id="path116"
           style="fill:#595b65;fill-opacity:1;fill-rule:nonzero;stroke:none"
           d="m 193.02,212.107 h 0.905 v 19.517 h -0.905 z" /><path
           id="path118"
           style="fill:#595b65;fill-opacity:1;fill-rule:nonzero;stroke:none"
           d="m 225.846,208.01 h 0.905 v 12.3 h -0.905 z" /><g
           transform="translate(191.5967,155.667)"
           id="g120"><path
             id="path122"
             style="fill:#595b65;fill-opacity:1;fill-rule:nonzero;stroke:none"
             d="M 0,0 H 16.458 L 1.141,33.312 0.328,32.89 15.011,0.959 0,0.95 Z" /></g><g
           transform="translate(150.3765,229.9522)"
           id="g124"><path
             id="path126"
             style="fill:#595b65;fill-opacity:1;fill-rule:nonzero;stroke:none"
             d="M 0,0 0.469,0.057 C 0.347,1.186 0.35,1.991 0.354,2.924 l 0.003,0.574 c 0,2.301 0.351,3.913 1.073,4.927 l 0.038,0.053 c 0.61,0.823 1.462,1.224 2.603,1.224 h 27.47 c 2.02,0 4.109,-1.344 5.057,-3.297 l 0.404,0.21 c -1.025,2.113 -3.27,3.589 -5.461,3.589 H 4.071 c -1.235,0 -2.211,-0.444 -2.9,-1.32 H 1.047 L 1.01,8.669 C 0.252,7.561 -0.116,5.869 -0.116,3.498 L -0.118,2.927 C -0.123,1.978 -0.127,1.157 0,0" /></g><g
           transform="translate(149.5249,211.5186)"
           id="g128"><path
             id="path130"
             style="fill:#595b65;fill-opacity:1;fill-rule:nonzero;stroke:none"
             d="m 0,0 c -1.308,-2.619 -4.52,-3.53 -7.168,-2.037 -2.653,1.495 -3.74,4.827 -2.432,7.444 l 9.996,19.99 c 1.309,2.618 4.518,3.527 7.169,2.034 2.652,-1.493 3.738,-4.824 2.431,-7.441 z" /></g><g
           transform="translate(139.144,190.7588)"
           id="g132"><path
             id="path134"
             style="fill:#595b65;fill-opacity:1;fill-rule:nonzero;stroke:none"
             d="m 0,0 c -1.309,-2.618 -4.518,-3.53 -7.169,-2.036 -2.649,1.493 -3.737,4.827 -2.429,7.443 l 9.994,19.99 c 1.309,2.618 4.519,3.528 7.17,2.037 2.653,-1.496 3.739,-4.827 2.429,-7.443 z" /></g><g
           transform="translate(230.2764,215.2847)"
           id="g136"><path
             id="path138"
             style="fill:#595b65;fill-opacity:1;fill-rule:nonzero;stroke:none"
             d="m 0,0 c 1.403,-3.097 5.082,-4.312 8.221,-2.712 3.139,1.6 4.544,5.41 3.141,8.507 L 0.647,29.458 c -1.401,3.098 -5.082,4.312 -8.219,2.711 -3.138,-1.6 -4.542,-5.409 -3.142,-8.505 z" /></g><g
           transform="translate(240.376,190.3955)"
           id="g140"><path
             id="path142"
             style="fill:#595b65;fill-opacity:1;fill-rule:nonzero;stroke:none"
             d="m 0,0 c 1.294,-3.151 4.928,-4.512 8.12,-3.036 3.192,1.474 4.729,5.224 3.439,8.376 L 1.687,29.412 c -1.293,3.152 -4.929,4.511 -8.121,3.036 -3.192,-1.475 -4.732,-5.225 -3.438,-8.377 z" /></g><g
           transform="translate(130.1304,186.6035)"
           id="g144"><path
             id="path146"
             style="fill:#595b65;fill-opacity:1;fill-rule:nonzero;stroke:none"
             d="m 0,0 c -6.1,0.001 -11.599,4.931 -12.793,11.47 -1.273,7.05 3.304,13.751 10.42,15.258 0.84,0.178 1.692,0.269 2.534,0.269 6.307,0 11.478,-5.028 12.027,-11.694 C 12.828,7.669 7.745,0.684 1.089,0.052 0.725,0.018 0.362,0 0.001,0 Z" /></g><g
           transform="translate(130.2915,214.3955)"
           id="g148"><path
             id="path150"
             style="fill:#595b65;fill-opacity:1;fill-rule:nonzero;stroke:none"
             d="m 0,0 c -0.891,0 -1.792,-0.095 -2.681,-0.283 -7.526,-1.593 -12.362,-8.704 -11.009,-16.188 1.261,-6.91 7.078,-12.117 13.529,-12.117 0.385,0 0.773,0.019 1.156,0.055 7.061,0.671 12.455,8.051 11.779,16.115 C 12.19,-5.339 6.698,0 0,0 m 0,-1.592 c 5.791,0 10.745,-4.485 11.28,-10.967 0.616,-7.353 -4.233,-13.8 -10.419,-14.388 -0.342,-0.033 -0.682,-0.049 -1.022,-0.049 -5.791,0 -10.934,4.672 -12.057,10.825 -1.177,6.513 3.062,12.893 9.83,14.327 0.806,0.17 1.604,0.252 2.388,0.252" /></g><g
           transform="translate(137.5415,113.7032)"
           id="g152"><path
             id="path154"
             style="fill:#595b65;fill-opacity:1;fill-rule:nonzero;stroke:none"
             d="m 0,0 c -1.334,0 -2.529,0.545 -3.456,1.574 -1.137,1.262 -1.738,3.167 -1.651,5.228 0.362,7.794 0.267,15.673 -0.28,23.435 l -1.839,0.13 c -1.745,-7.571 -3.682,-15.026 -5.759,-22.172 -0.814,-2.745 -2.858,-4.516 -5.21,-4.516 -0.78,0 -1.547,0.196 -2.281,0.583 -2.92,1.545 -4.582,5.508 -3.782,9.021 1.851,7.957 3.476,16.047 4.831,24.055 -0.166,0.713 -0.257,1.437 -0.269,2.156 0.503,6.36 0.821,12.798 0.948,19.214 -0.158,0.175 -0.303,0.351 -0.435,0.532 -0.301,0.189 -0.589,0.408 -0.857,0.653 -5.562,5.08 -11.626,9.787 -18.026,13.99 -1.496,0.99 -2.491,2.462 -2.805,4.145 -0.287,1.535 0.041,3.101 0.924,4.408 1.188,1.765 3.291,2.862 5.487,2.862 1.216,0 2.391,-0.335 3.398,-0.967 6.648,-4.193 12.965,-8.902 18.777,-13.998 0.22,-0.192 0.427,-0.404 0.618,-0.635 l 9.759,0.855 c 0.155,0.27 0.327,0.526 0.512,0.761 5.206,6.631 10.297,13.374 15.137,20.04 1.225,1.691 3.029,2.662 4.948,2.662 1.561,0 3.05,-0.66 4.193,-1.857 2.577,-2.687 2.762,-7.586 0.402,-10.698 C 18.22,74.766 12.921,68.028 7.536,61.435 7.372,61.234 7.2,61.057 7.024,60.89 6.913,60.662 6.792,60.443 6.662,60.237 7.519,53.007 8.032,45.721 8.189,38.572 8.101,37.64 7.927,36.811 7.667,36.018 8.108,26.771 7.944,17.389 7.178,8.13 6.826,4.022 3.848,0.39 0.537,0.03 0.355,0.011 0.177,0 0,0" /></g><g
           transform="translate(156.2319,208.5147)"
           id="g156"><path
             id="path158"
             style="fill:#595b65;fill-opacity:1;fill-rule:nonzero;stroke:none"
             d="m 0,0 c -2.155,0 -4.176,-1.084 -5.545,-2.974 -4.832,-6.656 -9.918,-13.389 -15.117,-20.013 -0.128,-0.163 -0.25,-0.333 -0.365,-0.511 l -4.301,-0.377 -4.731,-0.413 c -0.14,0.149 -0.287,0.29 -0.439,0.423 -5.842,5.122 -12.19,9.854 -18.871,14.068 -1.124,0.706 -2.432,1.079 -3.781,1.079 -2.434,0 -4.771,-1.223 -6.098,-3.195 -1.004,-1.488 -1.377,-3.272 -1.049,-5.024 0.35,-1.875 1.494,-3.575 3.141,-4.666 6.372,-4.184 12.404,-8.867 17.935,-13.918 0.266,-0.244 0.549,-0.463 0.844,-0.657 0.059,-0.077 0.119,-0.153 0.183,-0.23 -0.132,-6.293 -0.447,-12.602 -0.937,-18.761 -0.005,-0.054 -0.006,-0.109 -0.006,-0.163 0.013,-0.722 0.098,-1.448 0.254,-2.164 -1.347,-7.938 -2.96,-15.955 -4.793,-23.838 -0.88,-3.867 0.955,-8.225 4.175,-9.928 0.839,-0.443 1.719,-0.667 2.615,-0.667 2.687,0 5.012,1.991 5.925,5.071 2.024,6.962 3.914,14.212 5.623,21.575 l 0.252,-0.018 0.309,-0.021 c 0.502,-7.507 0.58,-15.118 0.23,-22.645 -0.097,-2.283 0.58,-4.402 1.859,-5.82 1.056,-1.174 2.476,-1.82 3.998,-1.82 0.202,0 0.407,0.011 0.614,0.034 3.648,0.397 6.928,4.351 7.31,8.817 0.766,9.249 0.933,18.616 0.498,27.85 0.252,0.803 0.423,1.635 0.508,2.478 0.008,0.069 0.01,0.138 0.008,0.208 -0.154,7.08 -0.659,14.297 -1.498,21.46 0.063,0.112 0.125,0.225 0.184,0.341 0.175,0.172 0.331,0.34 0.476,0.517 5.394,6.605 10.698,13.35 15.77,20.054 2.633,3.473 2.425,8.751 -0.463,11.765 C 3.434,-0.741 1.758,0 0,0 m 0,-1.592 c 1.306,0 2.615,-0.528 3.665,-1.628 2.361,-2.462 2.446,-6.86 0.345,-9.631 -5.343,-7.063 -10.598,-13.719 -15.731,-20.004 -0.174,-0.212 -0.358,-0.397 -0.549,-0.57 -0.157,-0.339 -0.337,-0.656 -0.539,-0.945 0.868,-7.235 1.397,-14.539 1.558,-21.888 -0.086,-0.848 -0.269,-1.659 -0.529,-2.418 0.448,-9.24 0.295,-18.577 -0.48,-27.935 -0.32,-3.741 -3.08,-7.064 -5.969,-7.378 -0.157,-0.018 -0.31,-0.026 -0.461,-0.026 -2.652,0 -4.501,2.584 -4.359,5.969 0.378,8.133 0.262,16.223 -0.33,24.221 -1.038,0.073 -2.077,0.145 -3.116,0.22 -1.769,-7.726 -3.731,-15.324 -5.898,-22.776 -0.735,-2.482 -2.543,-3.955 -4.493,-3.955 -0.644,0 -1.303,0.161 -1.946,0.499 -2.58,1.364 -4.105,4.969 -3.387,8.122 1.85,7.956 3.48,16.046 4.869,24.272 -0.172,0.686 -0.274,1.403 -0.287,2.14 0.516,6.473 0.832,12.984 0.955,19.528 -0.247,0.244 -0.478,0.511 -0.683,0.813 -0.307,0.18 -0.6,0.394 -0.877,0.647 -5.572,5.09 -11.623,9.796 -18.12,14.063 -2.543,1.685 -3.349,4.919 -1.666,7.413 1.085,1.61 2.969,2.529 4.878,2.529 1.041,0 2.087,-0.272 3.015,-0.856 6.677,-4.211 12.916,-8.871 18.682,-13.927 0.291,-0.255 0.545,-0.539 0.767,-0.847 3.514,0.307 7.029,0.614 10.543,0.922 0.176,0.356 0.385,0.696 0.633,1.012 4.946,6.3 10.011,12.977 15.155,20.062 1.114,1.539 2.732,2.352 4.355,2.352" /></g><g
           transform="translate(248.9463,185.8086)"
           id="g160"><path
             id="path162"
             style="fill:#595b65;fill-opacity:1;fill-rule:nonzero;stroke:none"
             d="m 0,0 c -0.361,0 -0.726,0.017 -1.091,0.052 -6.652,0.632 -11.734,7.617 -11.097,15.253 0.551,6.664 5.721,11.691 12.025,11.691 0.842,0 1.696,-0.091 2.537,-0.269 C 9.491,25.221 14.067,18.52 12.793,11.471 11.601,4.931 6.103,0 0.001,0 Z" /></g><g
           transform="translate(248.7832,213.6001)"
           id="g164"><path
             id="path166"
             style="fill:#595b65;fill-opacity:1;fill-rule:nonzero;stroke:none"
             d="m 0,0 c -6.695,0 -12.187,-5.338 -12.771,-12.417 -0.674,-8.065 4.72,-15.446 11.777,-16.116 0.385,-0.036 0.773,-0.055 1.157,-0.055 6.454,0 12.271,5.208 13.529,12.115 C 15.046,-8.987 10.21,-1.877 2.684,-0.284 1.795,-0.095 0.892,0 0,0 m 0,-1.592 c 0.784,0 1.584,-0.082 2.391,-0.253 6.767,-1.433 11.006,-7.812 9.83,-14.325 -1.123,-6.155 -6.265,-10.826 -12.058,-10.826 -0.338,0 -0.68,0.017 -1.022,0.049 -6.187,0.588 -11.033,7.037 -10.419,14.39 0.537,6.48 5.488,10.965 11.278,10.965" /></g><g
           transform="translate(241.5361,112.9092)"
           id="g168"><path
             id="path170"
             style="fill:#595b65;fill-opacity:1;fill-rule:nonzero;stroke:none"
             d="m 0,0 c -0.177,0 -0.356,0.01 -0.537,0.029 -3.311,0.361 -6.289,3.993 -6.641,8.096 -0.555,6.715 -0.796,13.537 -0.716,20.289 -2.525,0.618 -4.995,1.407 -7.347,2.352 -0.349,0.139 -0.548,0.526 -0.47,0.912 0.741,3.673 5.471,21.176 8.708,29.167 -0.008,0.014 -0.016,0.029 -0.021,0.042 -0.177,0.167 -0.349,0.346 -0.511,0.544 -5.417,6.634 -10.714,13.374 -15.748,20.03 -2.362,3.108 -2.178,8.007 0.401,10.697 1.142,1.196 2.63,1.856 4.192,1.856 1.919,0 3.724,-0.971 4.95,-2.662 4.878,-6.72 9.97,-13.461 15.136,-20.038 0.185,-0.236 0.355,-0.489 0.509,-0.756 l 9.888,-0.727 c 0.166,0.191 0.326,0.356 0.493,0.5 5.816,5.099 12.132,9.808 18.776,13.996 1.007,0.634 2.181,0.969 3.398,0.969 2.195,0 4.299,-1.097 5.487,-2.861 0.883,-1.311 1.21,-2.876 0.922,-4.414 -0.313,-1.68 -1.309,-3.15 -2.801,-4.137 C 31.65,69.666 25.585,64.959 20.043,59.891 19.775,59.646 19.484,59.426 19.18,59.236 19.047,59.055 18.904,58.879 18.747,58.708 l 0.014,-0.57 c 2.945,-8.353 6.319,-23.758 6.864,-26.46 0.076,-0.386 -0.122,-0.773 -0.47,-0.912 -1.392,-0.56 -2.825,-1.067 -4.266,-1.51 1.042,-5.467 2.174,-10.837 3.37,-15.97 0.798,-3.52 -0.864,-7.482 -3.783,-9.025 -0.733,-0.387 -1.5,-0.583 -2.282,-0.583 -2.351,0 -4.395,1.77 -5.208,4.512 C 11.197,14.346 9.525,20.653 8.017,26.952 7.053,26.896 6.103,26.865 5.178,26.861 4.822,20.188 4.798,13.445 5.106,6.804 5.193,4.738 4.593,2.833 3.456,1.571 2.529,0.543 1.334,0 0,0" /></g><g
           transform="translate(222.8457,207.7188)"
           id="g172"><path
             id="path174"
             style="fill:#595b65;fill-opacity:1;fill-rule:nonzero;stroke:none"
             d="m 0,0 v 0 c -1.759,0.001 -3.435,-0.741 -4.721,-2.087 -2.887,-3.013 -3.091,-8.29 -0.455,-11.762 5.038,-6.662 10.342,-13.408 15.764,-20.049 0.067,-0.084 0.139,-0.165 0.212,-0.247 -3.245,-8.241 -7.824,-25.203 -8.554,-28.821 -0.154,-0.769 0.243,-1.544 0.938,-1.823 2.201,-0.882 4.503,-1.632 6.857,-2.235 -0.059,-6.571 0.185,-13.2 0.726,-19.728 0.382,-4.468 3.662,-8.422 7.309,-8.82 0.208,-0.023 0.412,-0.033 0.614,-0.033 1.522,0 2.941,0.644 3.997,1.818 1.296,1.437 1.958,3.503 1.859,5.813 -0.295,6.373 -0.283,12.837 0.033,19.238 0.513,0.009 1.029,0.027 1.551,0.05 1.474,-6.101 3.096,-12.206 4.83,-18.165 0.915,-3.087 3.24,-5.077 5.927,-5.077 0.896,0 1.775,0.224 2.613,0.667 3.221,1.7 5.055,6.059 4.18,9.92 -1.143,4.907 -2.227,10.022 -3.23,15.232 1.238,0.398 2.463,0.84 3.662,1.32 0.694,0.279 1.092,1.054 0.937,1.823 -0.657,3.255 -3.916,18.071 -6.852,26.448 l -0.001,0.083 c 0,0.01 -10e-4,0.021 -10e-4,0.03 0.061,0.074 0.121,0.148 0.177,0.224 0.3,0.196 0.586,0.416 0.853,0.66 5.511,5.04 11.543,9.722 17.926,13.917 1.674,1.108 2.79,2.762 3.145,4.661 0.329,1.754 -0.045,3.541 -1.05,5.032 -1.326,1.969 -3.662,3.193 -6.096,3.193 -1.35,0 -2.657,-0.373 -3.779,-1.078 -6.679,-4.212 -13.028,-8.944 -18.872,-14.069 -0.105,-0.092 -0.208,-0.189 -0.312,-0.295 l -9.166,0.675 c -0.113,0.173 -0.233,0.338 -0.357,0.497 C 15.503,-16.417 10.416,-9.683 5.545,-2.972 4.175,-1.083 2.154,0 0,0 m 0,-1.593 c 1.622,0 3.241,-0.812 4.355,-2.35 5.145,-7.086 10.208,-13.763 15.155,-20.063 0.249,-0.316 0.457,-0.655 0.635,-1.011 L 30.792,-25.8 c 10e-4,-0.002 0.004,-0.006 0.007,-0.009 0.197,0.256 0.407,0.5 0.655,0.716 5.767,5.057 12.005,9.717 18.681,13.927 0.928,0.582 1.973,0.856 3.015,0.856 1.908,0 3.792,-0.919 4.876,-2.528 1.683,-2.494 0.882,-5.728 -1.664,-7.412 -6.495,-4.269 -12.549,-8.975 -18.119,-14.065 -0.276,-0.254 -0.572,-0.47 -0.88,-0.648 -0.205,-0.301 -0.436,-0.568 -0.682,-0.811 0.007,-0.351 0.015,-0.702 0.023,-1.052 2.887,-8.124 6.216,-23.191 6.877,-26.473 -1.605,-0.644 -3.231,-1.207 -4.875,-1.69 1.065,-5.638 2.232,-11.217 3.515,-16.725 0.716,-3.153 -0.808,-6.758 -3.39,-8.122 -0.641,-0.339 -1.301,-0.499 -1.944,-0.499 -1.949,0 -3.758,1.473 -4.494,3.954 -1.848,6.356 -3.554,12.807 -5.113,19.358 -1.222,-0.084 -2.448,-0.13 -3.673,-0.13 -0.148,0 -0.297,0.001 -0.445,0.002 -0.395,-6.913 -0.439,-13.888 -0.113,-20.895 0.142,-3.385 -1.706,-5.968 -4.359,-5.968 -0.152,0 -0.303,0.009 -0.461,0.026 -2.89,0.315 -5.649,3.635 -5.969,7.376 -0.577,6.974 -0.809,13.935 -0.704,20.851 -2.655,0.618 -5.276,1.433 -7.843,2.462 0.709,3.514 5.592,21.617 8.811,29.381 -0.09,0.158 -0.176,0.323 -0.254,0.493 -0.191,0.173 -0.375,0.359 -0.549,0.57 -5.132,6.285 -10.387,12.941 -15.729,20.005 -2.104,2.77 -2.017,7.168 0.342,9.63 1.05,1.101 2.358,1.627 3.666,1.627" /></g></g></g></g></svg>