<?xml version="1.0" encoding="UTF-8"?>
<svg width="886px" height="758px" viewBox="0 0 886 758" version="1.1" xmlns="http://www.w3.org/2000/svg" xmlns:xlink="http://www.w3.org/1999/xlink">
    <!-- Generator: Sketch 52.6 (67491) - http://www.bohemiancoding.com/sketch -->
    <title>undraw_for_sale_viax</title>
    <desc>Created with Sketch.</desc>
    <defs>
        <linearGradient x1="0%" y1="50.0040627%" x2="100%" y2="50.0040627%" id="linearGradient-1">
            <stop stop-color="#808080" stop-opacity="0.25" offset="0%"></stop>
            <stop stop-color="#808080" stop-opacity="0.12" offset="54%"></stop>
            <stop stop-color="#808080" stop-opacity="0.1" offset="100%"></stop>
        </linearGradient>
        <linearGradient x1="50%" y1="100%" x2="50%" y2="0%" id="linearGradient-2">
            <stop stop-color="#808080" stop-opacity="0.25" offset="0%"></stop>
            <stop stop-color="#808080" stop-opacity="0.12" offset="54%"></stop>
            <stop stop-color="#808080" stop-opacity="0.1" offset="100%"></stop>
        </linearGradient>
        <linearGradient x1="50.001378%" y1="100.002492%" x2="50.001378%" y2="0.00249183923%" id="linearGradient-3">
            <stop stop-color="#808080" stop-opacity="0.25" offset="0%"></stop>
            <stop stop-color="#808080" stop-opacity="0.12" offset="54%"></stop>
            <stop stop-color="#808080" stop-opacity="0.1" offset="100%"></stop>
        </linearGradient>
        <linearGradient x1="50.0279174%" y1="100%" x2="50.0279174%" y2="0%" id="linearGradient-4">
            <stop stop-color="#808080" stop-opacity="0.25" offset="0%"></stop>
            <stop stop-color="#808080" stop-opacity="0.12" offset="54%"></stop>
            <stop stop-color="#808080" stop-opacity="0.1" offset="100%"></stop>
        </linearGradient>
        <linearGradient x1="50.0088863%" y1="100.002908%" x2="50.0088863%" y2="-0.0145048606%" id="linearGradient-5">
            <stop stop-color="#808080" stop-opacity="0.25" offset="0%"></stop>
            <stop stop-color="#808080" stop-opacity="0.12" offset="54%"></stop>
            <stop stop-color="#808080" stop-opacity="0.1" offset="100%"></stop>
        </linearGradient>
        <linearGradient x1="49.9754541%" y1="100.002674%" x2="49.9754541%" y2="0%" id="linearGradient-6">
            <stop stop-color="#808080" stop-opacity="0.25" offset="0%"></stop>
            <stop stop-color="#808080" stop-opacity="0.12" offset="54%"></stop>
            <stop stop-color="#808080" stop-opacity="0.1" offset="100%"></stop>
        </linearGradient>
        <linearGradient x1="49.9926438%" y1="100%" x2="49.9926438%" y2="0%" id="linearGradient-7">
            <stop stop-color="#808080" stop-opacity="0.25" offset="0%"></stop>
            <stop stop-color="#808080" stop-opacity="0.12" offset="54%"></stop>
            <stop stop-color="#808080" stop-opacity="0.1" offset="100%"></stop>
        </linearGradient>
        <linearGradient x1="49.9951518%" y1="100%" x2="49.9951518%" y2="0%" id="linearGradient-8">
            <stop stop-color="#808080" stop-opacity="0.25" offset="0%"></stop>
            <stop stop-color="#808080" stop-opacity="0.12" offset="54%"></stop>
            <stop stop-color="#808080" stop-opacity="0.1" offset="100%"></stop>
        </linearGradient>
        <linearGradient x1="49.9992331%" y1="100%" x2="49.9992331%" y2="0%" id="linearGradient-9">
            <stop stop-color="#808080" stop-opacity="0.25" offset="0%"></stop>
            <stop stop-color="#808080" stop-opacity="0.12" offset="54%"></stop>
            <stop stop-color="#808080" stop-opacity="0.1" offset="100%"></stop>
        </linearGradient>
        <linearGradient x1="49.9960333%" y1="100%" x2="49.9960333%" y2="0%" id="linearGradient-10">
            <stop stop-color="#808080" stop-opacity="0.25" offset="0%"></stop>
            <stop stop-color="#808080" stop-opacity="0.12" offset="54%"></stop>
            <stop stop-color="#808080" stop-opacity="0.1" offset="100%"></stop>
        </linearGradient>
        <linearGradient x1="50.0032652%" y1="100%" x2="50.0032652%" y2="0%" id="linearGradient-11">
            <stop stop-color="#808080" stop-opacity="0.25" offset="0%"></stop>
            <stop stop-color="#808080" stop-opacity="0.12" offset="54%"></stop>
            <stop stop-color="#808080" stop-opacity="0.1" offset="100%"></stop>
        </linearGradient>
        <linearGradient x1="50.0085213%" y1="99.9783815%" x2="50.0085213%" y2="0%" id="linearGradient-12">
            <stop stop-color="#808080" stop-opacity="0.25" offset="0%"></stop>
            <stop stop-color="#808080" stop-opacity="0.12" offset="54%"></stop>
            <stop stop-color="#808080" stop-opacity="0.1" offset="100%"></stop>
        </linearGradient>
        <linearGradient x1="49.9710927%" y1="99.9740787%" x2="49.9710927%" y2="0.000868303498%" id="linearGradient-13">
            <stop stop-color="#808080" stop-opacity="0.25" offset="0%"></stop>
            <stop stop-color="#808080" stop-opacity="0.12" offset="54%"></stop>
            <stop stop-color="#808080" stop-opacity="0.1" offset="100%"></stop>
        </linearGradient>
        <linearGradient x1="49.9467519%" y1="100.005802%" x2="49.9467519%" y2="0%" id="linearGradient-14">
            <stop stop-color="#808080" stop-opacity="0.25" offset="0%"></stop>
            <stop stop-color="#808080" stop-opacity="0.12" offset="54%"></stop>
            <stop stop-color="#808080" stop-opacity="0.1" offset="100%"></stop>
        </linearGradient>
        <linearGradient x1="49.993688%" y1="99.9999966%" x2="49.993688%" y2="0.00604520347%" id="linearGradient-15">
            <stop stop-color="#808080" stop-opacity="0.25" offset="0%"></stop>
            <stop stop-color="#808080" stop-opacity="0.12" offset="54%"></stop>
            <stop stop-color="#808080" stop-opacity="0.1" offset="100%"></stop>
        </linearGradient>
        <linearGradient x1="50.0665779%" y1="100%" x2="50.0665779%" y2="0%" id="linearGradient-16">
            <stop stop-color="#808080" stop-opacity="0.25" offset="0%"></stop>
            <stop stop-color="#808080" stop-opacity="0.12" offset="54%"></stop>
            <stop stop-color="#808080" stop-opacity="0.1" offset="100%"></stop>
        </linearGradient>
        <linearGradient x1="49.9964677%" y1="99.9999792%" x2="49.9964677%" y2="0.0362095195%" id="linearGradient-17">
            <stop stop-color="#808080" stop-opacity="0.25" offset="0%"></stop>
            <stop stop-color="#808080" stop-opacity="0.12" offset="54%"></stop>
            <stop stop-color="#808080" stop-opacity="0.1" offset="100%"></stop>
        </linearGradient>
        <linearGradient x1="49.882904%" y1="100%" x2="49.882904%" y2="0%" id="linearGradient-18">
            <stop stop-color="#808080" stop-opacity="0.25" offset="0%"></stop>
            <stop stop-color="#808080" stop-opacity="0.12" offset="54%"></stop>
            <stop stop-color="#808080" stop-opacity="0.1" offset="100%"></stop>
        </linearGradient>
    </defs>
    <g id="Page-1" stroke="none" stroke-width="1" fill="none" fill-rule="evenodd">
        <g id="undraw_for_sale_viax" transform="translate(-1.000000, 0.000000)">
            <polygon id="Path" fill="url(#linearGradient-1)" points="710 242.4 710 176 769 176 769 299.07"></polygon>
            <polygon id="Path" fill="#6C63FF" points="717 247 717 189 761 189 761 299.07"></polygon>
            <circle id="Oval" fill="url(#linearGradient-2)" cx="817" cy="55" r="55"></circle>
            <circle id="Oval" fill="#FF9800" cx="817" cy="55" r="44"></circle>
            <g id="f741385e-e577-4271-b030-1aa9bd75830a" transform="translate(0.000000, 98.000000)" fill="url(#linearGradient-3)">
                <path d="M346.49,207.47 C362.918117,188.679411 370.392755,163.689394 366.980362,138.96441 C363.567969,114.239425 349.603753,92.20827 328.7,78.57 C334.041058,70.3013309 336.875055,60.6636559 336.86,50.82 C336.86,22.98 314.79,0.41 287.57,0.41 C265.15,0.41 246.25,15.74 240.28,36.7 C227.41,14.95 204.06,0.41 177.39,0.41 C136.82,0.41 103.94,34.04 103.94,75.53 C103.93063,84.3684059 105.453161,93.1415686 108.44,101.46 C106.95,101.34 105.44,101.23 103.94,101.23 C71.38,101.23 44.94,128.23 44.94,161.53 C44.94,163.58 45.04,165.61 45.24,167.62 C18.1776188,179.772399 0.831223746,206.744788 1,236.41 C1,277.76 33.78,311.29 74.21,311.29 C78.4586966,311.284571 82.6985745,310.903082 86.88,310.15 C86.66,312.64 86.53,315.15 86.53,317.72 C86.53,364.12 123.31,401.72 168.68,401.72 C185.455353,401.716366 201.81049,396.472094 215.46,386.72 C226.443196,396.370814 240.559177,401.701622 255.18,401.72 C289.07,401.72 316.55,373.62 316.55,338.95 C316.55,337.45 316.43,335.95 316.33,334.5 L316.55,334.5 C352.85,334.5 382.27,304.41 382.27,267.29 C382.384861,242.25073 368.605251,219.212824 346.49,207.47 Z" id="Path"></path>
            </g>
            <path d="M337,305.07 C352.423913,287.432113 359.442126,263.972866 356.238685,240.762306 C353.035244,217.551745 339.924923,196.870568 320.3,184.07 C325.306434,176.323011 327.966552,167.293892 327.96,158.07 C327.96,131.94 307.25,110.75 281.69,110.75 C260.69,110.75 242.91,125.14 237.3,144.81 C225.057149,123.805039 202.612264,110.847874 178.3,110.75 C140.22,110.75 109.35,142.32 109.35,181.26 C109.339906,189.556205 110.767701,197.791399 113.57,205.6 C112.17,205.49 110.77,205.38 109.35,205.38 C78.75,205.37 54,230.7 54,262 C54,263.93 54.1,265.83 54.28,267.71 C28.8640414,279.106188 12.566847,304.426444 12.72,332.28 C12.72,371.1 43.49,402.56 81.44,402.56 C85.4271399,402.554832 89.4059982,402.196768 93.33,401.49 C93.13,403.83 93,406.2 93,408.59 C93,452.14 127.52,487.45 170.11,487.45 C185.847461,487.469945 201.198428,482.575535 214.02,473.45 C224.340065,482.479234 237.587568,487.454155 251.3,487.45 C283.11,487.45 308.91,461.07 308.91,428.53 C308.91,427.12 308.8,425.74 308.7,424.35 L308.91,424.35 C342.98,424.35 370.6,396.1 370.6,361.26 C370.721148,337.738912 357.778085,316.09395 337,305.07 Z" id="aa86aca2-1def-4b5e-bdbf-3429bf39090e" fill="#00897B"></path>
            <rect id="Rectangle" fill="url(#linearGradient-4)" x="197.44" y="215.07" width="17.91" height="445.51"></rect>
            <rect id="Rectangle" fill="#795548" x="202.53" y="221.33" width="9.01" height="439.25"></rect>
            <rect id="Rectangle" fill="#795548" transform="translate(241.982062, 313.910198) rotate(-47.200000) translate(-241.982062, -313.910198) " x="187.577062" y="309.405198" width="108.81" height="9.01"></rect>
            <rect id="Rectangle" fill="#795548" transform="translate(166.687920, 394.010908) rotate(-53.400000) translate(-166.687920, -394.010908) " x="162.18292" y="346.270908" width="9.01" height="95.48"></rect>
            <g id="b1e29bf6-85c6-472a-ba69-b630e8d8f49d" transform="translate(202.000000, 181.000000)" fill="url(#linearGradient-5)">
                <path d="M32,174 C19.9056505,161.130558 13.1625656,144.140558 13.14,126.48 C13.14,101.04 26.97,78.74 47.75,66.17 C43.074461,59.3476471 40.5715614,51.2707413 40.57,43 C40.57,19.71 60.11,0.83 84.22,0.83 C104.08,0.83 120.81,13.65 126.1,31.19 C138.198742,12.1574367 159.237887,0.687721357 181.79,0.83 C217.72,0.83 246.79,28.97 246.79,63.68 C246.789483,71.0933373 245.433872,78.4441417 242.79,85.37 C244.11,85.27 245.43,85.18 246.79,85.18 C275.63,85.18 299,107.76 299,135.62 C298.997811,137.320187 298.90769,139.019123 298.73,140.71 C321.79,150.31 337.94,172.46 337.94,198.26 C337.94,232.86 308.94,260.9 273.1,260.9 C269.338644,260.880422 265.585532,260.54592 261.88,259.9 C262.07,261.99 262.19,264.09 262.19,266.23 C262.19,305.05 229.62,336.52 189.44,336.52 C174.712749,336.547035 160.310931,332.188545 148.07,324 C138.152597,332.131237 125.714604,336.55772 112.89,336.52 C82.89,336.52 58.54,313.01 58.54,284.01 C58.54,282.75 58.64,281.52 58.73,280.28 L58.54,280.28 C26.4,280.28 0.34,255.1 0.34,224.05 C0.34,202.23 13.23,183.32 32,174 Z" id="Path"></path>
            </g>
            <path d="M239.91,354.77 C228.351228,342.442494 221.915861,326.178893 221.91,309.28 C221.91,284.93 235.15,263.59 255.04,251.56 C250.540738,245.023464 248.131218,237.275342 248.13,229.34 C248.13,207.05 266.84,188.97 289.91,188.97 C308.91,188.97 324.91,201.24 330,218.03 C341.577971,199.841278 361.689296,188.877301 383.25,189 C417.64,189 445.51,215.93 445.51,249.15 C445.51667,256.247695 444.225435,263.286788 441.7,269.92 C442.96,269.83 444.22,269.73 445.51,269.73 C473.11,269.73 495.51,291.35 495.51,318.01 C495.510635,319.636557 495.42719,321.262059 495.26,322.88 C517.33,332.07 532.79,353.27 532.79,377.96 C532.79,411.07 505.01,437.96 470.73,437.96 C467.132819,437.939819 463.543633,437.618698 460,437 C460.18,439 460.29,441 460.29,443.06 C460.29,480.22 429.11,510.34 390.66,510.34 C376.544311,510.370402 362.739933,506.192533 351.01,498.34 C341.520627,506.128439 329.616279,510.371153 317.34,510.34 C288.61,510.34 265.34,487.84 265.34,460.08 C265.34,458.88 265.44,457.7 265.53,456.51 L265.34,456.51 C234.57,456.51 209.63,432.41 209.63,402.69 C209.58,381.79 221.91,363.69 239.91,354.77 Z" id="da8ae254-7852-462b-b033-1b79dc847a6a" fill="#009688"></path>
            <path d="M357.95,284.4 L357.95,658.33" id="d827a518-3361-4086-b50f-c6b47e6818cd" fill="#795548"></path>
            <rect id="Rectangle" fill="url(#linearGradient-6)" x="347.43" y="284.4" width="20.37" height="373.92"></rect>
            <rect id="Rectangle" fill="#795548" x="352.32" y="284.4" width="11.26" height="373.92"></rect>
            <path d="M359.09,396.39 L292.32,328.28" id="4a2b3956-f53f-4918-93e5-f7b78a79ae92" fill="#795548"></path>
            <rect id="Rectangle" fill="#795548" transform="translate(325.698746, 362.337641) rotate(-44.430000) translate(-325.698746, -362.337641) " x="320.068746" y="314.647641" width="11.26" height="95.38"></rect>
            <path d="M359.09,454.93 L428.31,406.36" id="100a92bc-a3f1-4f9a-a93f-0d91ae55d71b" fill="#795548"></path>
            <rect id="Rectangle" fill="#795548" transform="translate(393.697722, 430.627502) rotate(-35.060000) translate(-393.697722, -430.627502) " x="351.417722" y="424.997502" width="84.56" height="11.26"></rect>
            <path d="M814.21,350 L312,350 C300.53,350 291.24,355.16 291.24,361.54 L291.24,730.22 L835,730.22 L835,361.54 C835,355.16 825.68,350 814.21,350 Z" id="Path" fill="url(#linearGradient-7)"></path>
            <polygon id="Path" fill="#FFFFFF" points="561.52 139.04 299.53 333.64 299.53 716.16 825.08 716.16 825.08 347.52"></polygon>
            <circle id="Oval" fill="url(#linearGradient-2)" cx="562.04" cy="314.57" r="58.34"></circle>
            <rect id="Rectangle" fill="url(#linearGradient-8)" x="349.53" y="427.08" width="103.13" height="103.13"></rect>
            <rect id="Rectangle" fill="url(#linearGradient-8)" x="669.34" y="427.08" width="103.13" height="103.13"></rect>
            <polygon id="Path" fill="url(#linearGradient-9)" points="249 430.7 235.03 352.56 562.67 100.75 887 357.59 878 427.7 562.62 189.72"></polygon>
            <polygon id="Path" fill="#6C63FF" points="249.64 415.01 240.03 361.02 562.59 109.32 882 361.04 872.33 414.98 562.54 170.84"></polygon>
            <rect id="Rectangle" fill="url(#linearGradient-10)" x="498.5" y="543.75" width="126.05" height="172.41"></rect>
            <rect id="Rectangle" fill="#6C63FF" x="502.14" y="547.4" width="118.76" height="168.76"></rect>
            <rect id="Rectangle" fill="#6C63FF" x="354.22" y="430.72" width="95.84" height="33.86"></rect>
            <rect id="Rectangle" fill="#6C63FF" opacity="0.2" x="354.22" y="464.58" width="95.84" height="61.98"></rect>
            <rect id="Rectangle" fill="#6C63FF" x="672.99" y="430.72" width="95.84" height="33.86"></rect>
            <rect id="Rectangle" fill="#6C63FF" opacity="0.2" x="672.99" y="464.58" width="95.84" height="61.98"></rect>
            <path d="M561.52,367.18 C575.619619,367.180006 589.141026,361.575534 599.106272,351.60091 C609.071518,341.626285 614.663269,328.099613 614.650024,314 L508.389976,314 C508.376731,328.099613 513.968482,341.626285 523.933728,351.60091 C533.898974,361.575534 547.420381,367.180006 561.52,367.18 Z" id="Path" fill="#6C63FF"></path>
            <path d="M561.52,366.66 C590.862889,366.66 614.65,342.872889 614.65,313.53 L508.39,313.53 C508.39,342.872889 532.177111,366.66 561.52,366.66 Z" id="Path" fill="#000000" opacity="0.2"></path>
            <path d="M561.52,260.92 C532.196626,260.919987 508.417596,284.676639 508.39,314 L614.65,314 C614.622404,284.676639 590.843374,260.919987 561.52,260.92 Z" id="Path" fill="#6C63FF" opacity="0.2"></path>
            <path d="M561.52,260.92 C532.196626,260.919987 508.417596,284.676639 508.39,314 L614.65,314 C614.622404,284.676639 590.843374,260.919987 561.52,260.92 Z" id="Path" fill="#6C63FF" opacity="0.2"></path>
            <circle id="Oval" fill="url(#linearGradient-2)" cx="593.29" cy="631.26" r="12.5"></circle>
            <circle id="Oval" fill="#263238" cx="593.29" cy="631.26" r="9.38"></circle>
            <rect id="Rectangle" fill="url(#linearGradient-11)" x="482.87" y="691.68" width="153.13" height="50"></rect>
            <rect id="Rectangle" fill="#FFFFFF" x="485.99" y="695.84" width="146.88" height="42.71"></rect>
            <g id="06ed4a51-c0d7-4f18-ace3-f8895d5abf4f" transform="translate(180.000000, 480.000000)" fill="url(#linearGradient-12)">
                <path d="M159.53,96.37 C167.098529,87.7080398 170.541464,76.1910101 168.968727,64.7963321 C167.395989,53.4016542 160.961965,43.247881 151.33,36.96 C153.7922,33.1492432 155.098133,28.7069845 155.09,24.17 C155.3775,12.7090392 147.059679,2.83897482 135.71575,1.18019277 C124.371821,-0.478589273 113.57616,6.59657913 110.57,17.66 C104.554439,7.33490348 93.5196057,0.968946184 81.57,0.93 C62.87,0.93 47.71,16.43 47.71,35.56 C47.6988406,39.6497787 48.399284,43.7103198 49.78,47.56 C49.09,47.51 48.41,47.45 47.71,47.45 C32.71,47.45 20.53,59.89 20.53,75.24 C20.53,76.19 20.53,77.12 20.67,78.05 C8.18943405,83.6478837 0.186452594,96.0817172 0.26,109.76 C0.26,128.82 15.37,144.27 34.01,144.27 C35.9684936,144.266037 37.9227905,144.088678 39.85,143.74 C39.75,144.89 39.69,146.05 39.69,147.23 C39.69,168.62 56.69,185.96 77.56,185.96 C85.2898965,185.961573 92.8273518,183.549308 99.12,179.06 C104.185017,183.503677 110.692,185.95579 117.43,185.96 C133.05,185.96 145.72,172.96 145.72,157.03 C145.72,156.34 145.67,155.66 145.62,154.98 L145.72,154.98 C162.45,154.98 176.01,141.11 176.01,123.98 C176.078586,112.428096 169.730367,101.792518 159.53,96.37 Z" id="Path"></path>
            </g>
            <path d="M335.15,576.19 C342.256455,568.059211 345.489267,557.247047 344.012335,546.549845 C342.535404,535.852644 336.49378,526.320974 327.45,520.42 C329.760335,516.844603 330.986339,512.676885 330.98,508.42 C331.251428,497.660805 323.443274,488.394359 312.793878,486.83734 C302.144481,485.280321 292.010232,491.923458 289.19,502.31 C283.547138,492.630229 273.204353,486.658118 262,486.61 C244.45,486.61 230.22,501.16 230.22,519.11 C230.216906,522.93457 230.876669,526.730744 232.17,530.33 C231.53,530.33 230.88,530.23 230.22,530.23 C216.13,530.23 204.71,541.91 204.71,556.32 C204.71,557.21 204.71,558.09 204.84,558.95 C193.125741,564.203062 185.613073,575.872008 185.68,588.71 C185.68,606.6 199.86,621.11 217.36,621.11 C219.197544,621.108619 221.031361,620.944647 222.84,620.62 C222.75,621.7 222.69,622.79 222.69,623.89 C222.69,643.97 238.6,660.24 258.23,660.24 C265.486988,660.241293 272.563149,657.975803 278.47,653.76 C283.224891,657.93262 289.333885,660.235488 295.66,660.24 C310.33,660.24 322.21,648.08 322.21,633.08 C322.21,632.43 322.16,631.79 322.11,631.15 L322.21,631.15 C337.91,631.15 350.65,618.15 350.65,602.07 C350.695844,591.23276 344.725779,581.264677 335.15,576.19 Z" id="78683fa5-7813-42ce-9e3f-16828d09ffb2" fill="#00897B"></path>
            <rect id="Rectangle" fill="url(#linearGradient-2)" x="270.82" y="534.71" width="8.26" height="205.36"></rect>
            <rect id="Rectangle" fill="#795548" x="273.17" y="537.59" width="4.15" height="202.48"></rect>
            <rect id="Rectangle" fill="#795548" transform="translate(291.363751, 580.227889) rotate(-47.200000) translate(-291.363751, -580.227889) " x="266.283751" y="578.152889" width="50.16" height="4.15"></rect>
            <rect id="Rectangle" fill="#795548" transform="translate(256.645165, 617.205925) rotate(-53.400000) translate(-256.645165, -617.205925) " x="254.570165" y="595.200925" width="4.15" height="44.01"></rect>
            <g id="972b0d41-b6e5-4c12-bd64-332f8d6d9bc4" transform="translate(273.000000, 519.000000)" fill="url(#linearGradient-13)">
                <path d="M14.69,80.21 C9.11114347,74.2783484 6.00345959,66.4429797 6,58.3 C6.07449026,46.8647168 12.1497528,36.3089482 22,30.5 C19.8326918,27.3525393 18.6715312,23.6214828 18.67,19.8 C18.67,9.06 27.67,0.36 38.79,0.36 C47.60955,0.258216844 55.4545461,5.94594056 58.1,14.36 C63.675232,5.58458845 73.3735163,0.295302099 83.77,0.36 C100.33,0.36 113.77,13.36 113.77,29.36 C113.772109,32.7776938 113.148496,36.1668975 111.93,39.36 C112.54,39.36 113.15,39.27 113.77,39.27 C127.06,39.27 137.84,49.68 137.84,62.52 C137.8406,63.3048798 137.800547,64.0892639 137.72,64.87 C148.55579,69.2433647 155.688444,79.7153795 155.79,91.4 C155.79,107.35 142.41,120.28 125.9,120.28 C124.167411,120.277787 122.438045,120.130607 120.73,119.84 C120.82,120.84 120.87,121.77 120.87,122.76 C120.87,140.65 105.87,155.16 87.33,155.16 C80.5312546,155.178489 73.8813658,153.169596 68.23,149.39 C63.6492311,153.126202 57.9111442,155.152033 52,155.12 C38.16,155.12 26.95,144.28 26.95,130.91 C26.95,130.33 26.95,129.76 27.04,129.19 L26.95,129.19 C12.13,129.19 0.12,117.58 0.12,103.27 C0.191139406,93.4365508 5.83971728,84.496523 14.69,80.21 Z" id="Path"></path>
            </g>
            <path d="M290.4,599.1 C285.05608,593.413358 282.080766,585.903549 282.08,578.1 C282.142249,567.163474 287.93903,557.061815 297.35,551.49 C295.274842,548.478168 294.162499,544.907514 294.16,541.25 C294.16,530.97 302.78,522.64 313.42,522.64 C321.854086,522.55447 329.354247,527.988839 331.9,536.03 C337.239225,527.63501 346.521173,522.576594 356.47,522.64 C372.32,522.64 385.17,535.05 385.17,550.37 C385.17131,553.640588 384.574843,556.883876 383.41,559.94 C383.99,559.94 384.57,559.85 385.17,559.85 C397.89,559.85 408.17,569.85 408.17,582.11 C408.168883,582.861569 408.12883,583.612576 408.05,584.36 C418.42254,588.543625 425.251469,598.565967 425.35,609.75 C425.35,625.01 412.54,637.39 396.74,637.39 C395.064476,637.391145 393.391854,637.250645 391.74,636.97 C391.83,637.89 391.88,638.82 391.88,639.76 C391.88,656.89 377.51,670.76 359.78,670.76 C353.273356,670.778501 346.908942,668.856643 341.5,665.24 C337.124189,668.82563 331.637223,670.77718 325.98,670.76 C312.74,670.76 301.98,660.39 301.98,647.59 C301.98,647.04 301.98,646.49 302.07,645.95 L301.98,645.95 C287.8,645.95 276.3,634.84 276.3,621.14 C276.408133,611.704327 281.878603,603.153322 290.4,599.1 Z" id="b9cc99c1-468f-47c5-9d53-f370b6656f3a" fill="#009688"></path>
            <path d="M344.81,566.66 L344.81,739.03" id="7a451371-7fbb-4ddd-b5af-3dcf3eef4c8e" fill="#795548"></path>
            <rect id="Rectangle" fill="url(#linearGradient-14)" x="339.96" y="566.66" width="9.39" height="172.36"></rect>
            <rect id="Rectangle" fill="#795548" x="342.22" y="566.66" width="5.19" height="172.36"></rect>
            <path d="M345.34,618.29 L314.56,586.89" id="f8907fab-e671-432b-8785-92f5b3540283" fill="#795548"></path>
            <rect id="Rectangle" fill="#795548" transform="translate(329.947599, 602.593577) rotate(-44.430000) translate(-329.947599, -602.593577) " x="327.352599" y="580.608577" width="5.19" height="43.97"></rect>
            <path d="M345.34,645.27 L377.25,622.88" id="83bfd14d-9fcf-4efd-aa6d-a51063723d88" fill="#795548"></path>
            <rect id="Rectangle" fill="#795548" transform="translate(361.298454, 634.056818) rotate(-35.060000) translate(-361.298454, -634.056818) " x="341.808454" y="631.461818" width="38.98" height="5.19"></rect>
            <circle id="Oval" fill="url(#linearGradient-2)" cx="260.89" cy="503.76" r="8"></circle>
            <circle id="Oval" fill="#E6E6E6" cx="260.89" cy="503.76" r="6.22"></circle>
            <g id="63650477-b8a1-43d8-a2c1-7cd9fae56092" transform="translate(721.000000, 521.000000)" fill="url(#linearGradient-15)">
                <path d="M15.74,87.47 C8.86388661,79.5948632 5.73722751,69.1267365 7.16792367,58.7704909 C8.59861982,48.4142453 14.4463089,39.1859082 23.2,33.47 C20.9607768,30.0049626 19.7729325,25.9655975 19.78,21.84 C19.5022869,11.4094177 27.0673081,2.41844276 37.3917631,0.908542227 C47.7162181,-0.601358308 57.5391243,5.8467182 60.26,15.92 C65.7282107,6.53472174 75.7579848,0.74743556 86.62,0.71 C103.62,0.71 117.4,14.81 117.4,32.19 C117.406091,35.8947408 116.77001,39.5725057 115.52,43.06 C116.14,43.06 116.77,42.96 117.4,42.96 C131.05,42.96 142.11,54.27 142.11,68.23 C142.11,69.09 142.11,69.94 141.98,70.78 C153.32885,75.8679395 160.60675,87.1729958 160.54,99.61 C160.54,116.94 146.8,130.99 129.86,130.99 C128.079303,130.987017 126.302366,130.82639 124.55,130.51 C124.64,131.51 124.7,132.61 124.7,133.68 C124.7,153.13 109.29,168.89 90.27,168.89 C83.2397431,168.894067 76.3838041,166.701984 70.66,162.62 C66.0509737,166.661514 60.1300049,168.889874 54,168.89 C39.8,168.89 28.28,157.11 28.28,142.58 C28.28,141.95 28.28,141.33 28.37,140.71 L28.28,140.71 C13.07,140.71 0.74,128.1 0.74,112.54 C0.693206802,102.045312 6.4700634,92.3902588 15.74,87.47 Z" id="Path"></path>
            </g>
            <path d="M740.72,608.31 C734.259586,600.918373 731.320667,591.089133 732.663331,581.364405 C734.005996,571.639676 739.498382,562.974522 747.72,557.61 C745.616816,554.360575 744.501729,550.570669 744.51,546.7 C744.256624,536.913146 751.356595,528.480578 761.043587,527.063218 C770.730578,525.645858 779.94884,531.690811 782.51,541.14 C787.641313,532.330041 797.054687,526.896614 807.25,526.86 C823.25,526.86 836.14,540.09 836.14,556.41 C836.143706,559.886724 835.544845,563.337789 834.37,566.61 C834.96,566.61 835.54,566.52 836.14,566.52 C848.95,566.52 859.33,577.14 859.33,590.24 C859.33,591.05 859.33,591.85 859.21,592.63 C869.862172,597.405397 876.693157,608.01656 876.63,619.69 C876.63,635.96 863.74,649.14 847.83,649.14 C846.153298,649.13831 844.480059,648.987718 842.83,648.69 C842.92,649.69 842.97,650.69 842.97,651.69 C842.97,669.94 828.5,684.74 810.65,684.74 C804.052904,684.741016 797.620166,682.681841 792.25,678.85 C787.929037,682.641168 782.37836,684.734221 776.63,684.74 C763.3,684.74 752.49,673.69 752.49,660.05 C752.49,659.46 752.49,658.88 752.58,658.3 L752.49,658.3 C738.21,658.3 726.64,646.46 726.64,631.86 C726.589973,622.002793 732.013324,612.931776 740.72,608.31 Z" id="d9fb3d72-af8e-4f1d-b977-47710d21b422" fill="#00897B"></path>
            <rect id="Rectangle" fill="url(#linearGradient-16)" x="791.69" y="570.59" width="7.51" height="186.71"></rect>
            <rect id="Rectangle" fill="#795548" x="793.29" y="573.21" width="3.78" height="184.09"></rect>
            <rect id="Rectangle" fill="#795548" transform="translate(780.538175, 612.093979) rotate(-42.800000) translate(-780.538175, -612.093979) " x="778.648175" y="589.293979" width="3.78" height="45.6"></rect>
            <rect id="Rectangle" fill="#795548" transform="translate(812.093917, 645.562615) rotate(-36.600000) translate(-812.093917, -645.562615) " x="792.083917" y="643.672615" width="40.02" height="3.78"></rect>
            <g id="ea5e6e86-8f22-4c0d-a253-147f504d396e" transform="translate(655.000000, 556.000000)" fill="url(#linearGradient-17)">
                <path d="M128.86,73.23 C133.928736,67.8349833 136.753383,60.712584 136.76,53.31 C136.713621,42.9105349 131.207734,33.2999134 122.26,28 C124.221356,25.1348699 125.267415,21.7421509 125.26,18.27 C125.26,8.51 117.07,0.59 106.97,0.59 C98.958816,0.507737911 91.8349384,5.67102697 89.42,13.31 C84.3485728,5.3346859 75.5309954,0.529219569 66.08,0.59 C51.02,0.59 38.82,12.38 38.82,26.93 C38.8181202,30.0364473 39.384088,33.1170744 40.49,36.02 C39.94,36.02 39.38,35.94 38.82,35.94 C26.74,35.94 16.94,45.4 16.94,57.08 C16.9399871,57.7914199 16.9767026,58.5023661 17.05,59.21 C7.19679725,63.1841819 0.710816894,72.7059011 0.62,83.33 C0.62,97.83 12.79,109.58 27.79,109.58 C29.3650802,109.577971 30.9372297,109.444171 32.49,109.18 C32.41,110.05 32.36,110.94 32.36,111.83 C32.36,128.1 46.01,141.29 62.85,141.29 C69.0299275,141.30485 75.0739822,139.477011 80.21,136.04 C84.370088,139.480295 89.6016775,141.358573 95,141.35 C107.58,141.35 117.78,131.5 117.78,119.35 C117.78,118.82 117.78,118.35 117.7,117.79 L117.78,117.79 C131.25,117.79 142.17,107.24 142.17,94.22 C142.103755,85.256261 136.939618,77.1123666 128.86,73.23 Z" id="Path"></path>
            </g>
            <path d="M781.4,629.14 C786.265717,623.980767 788.98332,617.161728 789,610.07 C788.943473,600.128397 783.674452,590.945572 775.12,585.88 C777.006527,583.14164 778.01774,579.895296 778.02,576.57 C778.02,567.23 770.18,559.65 760.51,559.65 C752.840013,559.571154 746.019954,564.515697 743.71,571.83 C738.856229,564.195357 730.416753,559.594067 721.37,559.65 C706.96,559.65 695.28,570.94 695.28,584.86 C695.278809,587.833262 695.821052,590.781706 696.88,593.56 C696.35,593.56 695.82,593.48 695.28,593.48 C683.71,593.48 674.34,602.54 674.34,613.71 C674.342866,614.378097 674.37958,615.045619 674.45,615.71 C665.020439,619.512787 658.811494,628.622924 658.72,638.79 C658.72,652.67 670.36,663.92 684.72,663.92 C686.22798,663.919221 687.733244,663.792109 689.22,663.54 C689.14,664.38 689.1,665.22 689.1,666.08 C689.1,681.65 702.17,694.28 718.28,694.28 C724.193823,694.302286 729.980104,692.561527 734.9,689.28 C738.880546,692.533658 743.868932,694.301335 749.01,694.28 C761.01,694.28 770.81,684.85 770.81,673.22 C770.81,672.72 770.81,672.22 770.73,671.73 L770.81,671.73 C783.7,671.73 794.16,661.63 794.16,649.17 C794.06836,640.608116 789.120838,632.841746 781.4,629.14 Z" id="79f8c247-f548-4c1c-8f49-a16aaa215201" fill="#009688"></path>
            <path d="M731.93,599.65 L731.93,756.36" id="86901f0c-b7b5-4ba8-942f-e54f281a8bcd" fill="#795548"></path>
            <rect id="Rectangle" fill="url(#linearGradient-18)" x="727.81" y="599.65" width="8.54" height="156.71"></rect>
            <rect id="Rectangle" fill="#795548" x="729.57" y="599.65" width="4.72" height="156.71"></rect>
            <path d="M731.46,646.58 L759.44,618.04" id="63650f42-d3c3-489e-a647-f3904e46b7bd" fill="#795548"></path>
            <rect id="Rectangle" fill="#795548" transform="translate(745.448052, 632.315353) rotate(-45.570000) translate(-745.448052, -632.315353) " x="725.463052" y="629.955353" width="39.97" height="4.72"></rect>
            <path d="M731.46,671.11 L702.44,650.76" id="25077b7e-584e-4c29-8c8c-a60ca5d6c1ae" fill="#795548"></path>
            <rect id="Rectangle" fill="#795548" transform="translate(716.950039, 660.952608) rotate(-54.940000) translate(-716.950039, -660.952608) " x="714.590039" y="643.232608" width="4.72" height="35.44"></rect>
        </g>
    </g>
</svg>